<svg width="1634.55517578125px" height="88.15999908447266px" xmlns="http://www.w3.org/2000/svg" viewBox="-567.277587890625 30.92000045776367 1634.55517578125 88.15999908447266" style="background: rgba(0, 0, 0, 0);" preserveAspectRatio="xMidYMid"><defs><linearGradient id="editing-shiny-gradient" x1="0.04322727117869957" x2="0.9567727288213004" y1="0.2966316784620999" y2="0.7033683215379001" gradientUnits="objectBoundingBox"><stop offset="0.0" stop-color="#ffb200"></stop><stop offset="0.5" stop-color="#e10057"></stop><stop offset="1.0" stop-color="#5A1A80"></stop></linearGradient><linearGradient id="editing-shiny-gradient2" x1="0" x2="0" y1="0" y2="1"><stop offset="0.2" stop-color="#fff" stop-opacity="0.8"></stop><stop offset="0.8" stop-color="#fff" stop-opacity="0"></stop></linearGradient><filter id="editing-shiny2" x="-100%" y="-100%" width="300%" height="300%"><feMorphology operator="erode" radius="2"></feMorphology></filter><filter id="editing-shiny" x="-100%" y="-100%" width="300%" height="300%"><feFlood flood-color="#fff" result="flood"></feFlood><feConvolveMatrix in="SourceGraphic" result="conv" order="8,8" divisor="1" kernelMatrix="0 0 0 0 0 0 0 0 0 0 0 1 1 0 0 0 0 0 0 1 1 0 0 0 0 0 1 0 0 1 0 0 0 0 1 0 0 1 0 0 0 1 0 0 0 0 1 0 0 1 1 0 0 1 1 0 0 0 0 1 1 0 0 0 "></feConvolveMatrix><feOffset dx="0" dy="4" in="conv" result="offset"></feOffset><feComposite operator="in" in="flood" in2="offset" result="comp"></feComposite><feGaussianBlur in="offset" stdDeviation="3" result="shadow"></feGaussianBlur><feColorMatrix in="shadow" type="matrix" values="0.7 0 0 0 0  0 0.7 0 0 0  0 0 0.7 0 0  0 0 0 0.3 0" result="dark-shadow"></feColorMatrix><feOffset dx="0" dy="4" in="dark-shadow" result="offset-shadow"></feOffset><feOffset dx="0" dy="2" in="conv" result="offset-2"></feOffset><feComposite operator="out" in="offset" in2="offset-2" result="edge-diff"></feComposite><feGaussianBlur in="edge-diff" stdDeviation="1" result="edge-blur"></feGaussianBlur><feColorMatrix in="edge-blur" result="edge-shadow" type="matrix" values="0 0 0 0 0  0 0 0 0 0  0 0 0 0 0  0 0 0 0.5 0"></feColorMatrix><feComposite operator="in" in="edge-shadow" in2="offset" result="edge-shadow-in"></feComposite><feOffset dx="0" dy="1" in="edge-shadow-in" result="edge-shadow-final"></feOffset><feMerge result="out"><feMergeNode in="offset-shadow"></feMergeNode><feMergeNode in="comp"></feMergeNode><feMergeNode in="edge-shadow-final"></feMergeNode><feMergeNode in="SourceGraphic"></feMergeNode></feMerge></filter></defs><g filter="url(#editing-shiny)"><g transform="translate(-340.81174063682556, 95.01500129699707)"><path d="M19.61 0.86L19.61 0.86L19.61 0.86Q14.10 0.86 13.59-6.97L13.59-6.97L6.19-6.97L6.19-6.97Q5.33-4.99 4.73-3.27L4.73-3.27L3.61 0L-2.41 0L11.14-28.38L20.38-28.38L22.19-7.48L22.19-7.48Q22.62-2.97 24.34-1.63L24.34-1.63L24.34-1.63Q23.09 0.86 19.61 0.86ZM9.89-15.57L7.53-10.11L13.46-10.11L12.94-21.16L12.94-22.32L9.89-15.57ZM45.02 0.86L45.02 0.86L45.02 0.86Q39.82 0.86 39.82-3.18L39.82-3.18L39.82-3.18Q39.86-4.30 40.21-6.19L40.21-6.19L40.98-10.15L40.98-10.15Q42.14-15.74 42.14-16.99L42.14-16.99L42.14-16.99Q42.14-19.48 40.68-19.48L40.68-19.48L40.68-19.48Q38.23-19.48 36.94-13.07L36.94-13.07L34.40 0L25.76 0.86L30.23-21.97L37.28-22.79L36.59-18.58L36.59-18.58Q38.61-22.79 44.81-22.79L44.81-22.79L44.81-22.79Q47.82-22.79 49.08-21.52L49.08-21.52L49.08-21.52Q50.35-20.25 50.35-17.42L50.35-17.42L50.35-17.42Q50.35-14.75 48.98-8.51L48.98-8.51L48.98-8.51Q48.33-5.72 48.33-4.67L48.33-4.67L48.33-4.67Q48.33-3.61 48.91-3.01L48.91-3.01L48.91-3.01Q49.49-2.41 50.35-2.32L50.35-2.32L50.35-2.32Q49.92-0.86 48.44 0L48.44 0L48.44 0Q46.96 0.86 45.02 0.86ZM75.42-4.77L75.42-4.77L75.42-4.77Q75.42-2.88 77.36-2.32L77.36-2.32L77.36-2.32Q76.88-0.73 75.04 0.13L75.04 0.13L75.04 0.13Q73.49 0.86 71.79 0.86L71.79 0.86L71.79 0.86Q70.09 0.86 69.21 0.41L69.21 0.41L69.21 0.41Q68.33-0.04 67.85-0.77L67.85-0.77L67.85-0.77Q67.08-1.89 67.08-4.00L67.08-4.00L67.08-4.00Q67.08-5.25 67.77-8.69L67.77-8.69L68.37-11.95L68.37-11.95Q69.10-15.70 69.10-17.07L69.10-17.07L69.10-17.07Q69.10-19.48 67.77-19.48L67.77-19.48L67.77-19.48Q66.09-19.48 65.02-17.03L65.02-17.03L65.02-17.03Q64.59-16.08 64.29-14.66L64.29-14.66L61.36 0L52.72 0.86L58.78-30.10L67.42-30.96L67.08-29.24L67.08-29.24Q65.88-22.62 64.84-20.38L64.84-20.38L64.84-20.38Q67.25-22.79 71.68-22.79L71.68-22.79L71.68-22.79Q76.37-22.79 77.23-19.69L77.23-19.69L77.23-19.69Q77.53-18.71 77.53-17.85L77.53-17.85L77.53-17.85Q77.53-16.99 77.46-16.32L77.46-16.32L77.46-16.32Q77.40-15.65 77.19-14.45L77.19-14.45L76.63-11.35L75.64-6.49L75.64-6.49Q75.42-5.50 75.42-4.77ZM117.61-17.85L117.61-17.85L117.61-17.85Q117.61 0.47 97.74 0.47L97.74 0.47L97.74 0.47Q94.56 0.47 89.31-0.30L89.31-0.30L94.13-25.71L94.13-25.71Q94.47-27.43 94.69-28.42L94.69-28.42L94.69-28.42Q101.22-28.90 104.12-28.90L104.12-28.90L104.12-28.90Q107.03-28.90 109.69-28.29L109.69-28.29L109.69-28.29Q112.36-27.69 114.12-26.36L114.12-26.36L114.12-26.36Q117.61-23.74 117.61-17.85ZM108.75-19.44L108.75-19.44L108.75-19.44Q108.75-25.84 104.15-25.84L104.15-25.84L103.72-25.84L103.72-25.84Q103.50-25.84 103.29-25.80L103.29-25.80L98.86-2.71L98.86-2.71Q99.03-2.62 99.20-2.62L99.20-2.62L99.55-2.62L99.55-2.62Q101.14-2.62 102.79-3.61L102.79-3.61L102.79-3.61Q104.45-4.60 105.74-6.62L105.74-6.62L105.74-6.62Q108.75-11.31 108.75-19.44ZM133.60-1.81L133.60-1.81L133.60-1.81Q131.54 0.86 126.42 0.86L126.42 0.86L126.42 0.86Q123.75 0.86 121.82-0.75L121.82-0.75L121.82-0.75Q119.88-2.37 119.88-4.69L119.88-4.69L119.88-4.69Q119.88-5.98 120.01-6.62L120.01-6.62L122.89-21.93L131.62-22.79L128.48-6.19L128.48-6.19Q128.31-5.25 128.31-4.69L128.31-4.69L128.31-4.69Q128.31-2.19 129.82-2.19L129.82-2.19L129.82-2.19Q131.49-2.19 132.70-4.47L132.70-4.47L132.70-4.47Q133.09-5.20 133.26-6.15L133.26-6.15L136.31-21.93L144.78-22.79L141.60-6.02L141.60-6.02Q141.47-5.38 141.47-4.69L141.47-4.69L141.47-4.69Q141.47-4.00 141.86-3.25L141.86-3.25L141.86-3.25Q142.24-2.49 143.49-2.32L143.49-2.32L143.49-2.32Q143.23-1.29 142.33-0.60L142.33-0.60L142.33-0.60Q140.44 0.86 138.40 0.86L138.40 0.86L138.40 0.86Q136.35 0.86 135.15 0.13L135.15 0.13L135.15 0.13Q133.95-0.60 133.60-1.81ZM165.29 0.86L165.29 0.86L165.29 0.86Q160.09 0.86 160.09-3.18L160.09-3.18L160.09-3.18Q160.13-4.30 160.48-6.19L160.48-6.19L161.25-10.15L161.25-10.15Q162.41-15.74 162.41-16.99L162.41-16.99L162.41-16.99Q162.41-19.48 160.95-19.48L160.95-19.48L160.95-19.48Q158.50-19.48 157.21-13.07L157.21-13.07L154.67 0L146.03 0.86L150.50-21.97L157.55-22.79L156.86-18.58L156.86-18.58Q158.89-22.79 165.08-22.79L165.08-22.79L165.08-22.79Q168.09-22.79 169.36-21.52L169.36-21.52L169.36-21.52Q170.62-20.25 170.62-17.42L170.62-17.42L170.62-17.42Q170.62-14.75 169.25-8.51L169.25-8.51L169.25-8.51Q168.60-5.72 168.60-4.67L168.60-4.67L168.60-4.67Q168.60-3.61 169.18-3.01L169.18-3.01L169.18-3.01Q169.76-2.41 170.62-2.32L170.62-2.32L170.62-2.32Q170.19-0.86 168.71 0L168.71 0L168.71 0Q167.23 0.86 165.29 0.86ZM177.12-17.97L177.12-17.97L177.12-17.97Q178.58-20.04 180.79-21.41L180.79-21.41L180.79-21.41Q183.01-22.79 185.72-22.79L185.72-22.79L185.72-22.79Q188.43-22.79 189.72-21.93L189.72-21.93L198.14-22.79L195.22-6.28L195.22-6.28Q193.72 2.15 190.53 5.46L190.53 5.46L190.53 5.46Q187.48 8.60 181.55 8.60L181.55 8.60L181.55 8.60Q177.03 8.60 174.45 7.18L174.45 7.18L174.45 7.18Q171.87 5.76 171.87 3.40L171.87 3.40L171.87 3.40Q171.87 1.63 173.20 0.62L173.20 0.62L173.20 0.62Q174.54-0.39 176.60-0.39L176.60-0.39L176.60-0.39Q178.41-0.39 179.78 0.43L179.78 0.43L179.78 0.43Q180.60 0.86 180.99 1.46L180.99 1.46L180.99 1.46Q180.00 2.32 180.00 3.74L180.00 3.74L180.00 3.74Q180.00 5.59 181.72 5.59L181.72 5.59L181.72 5.59Q184.60 5.59 186.23-1.20L186.23-1.20L186.23-1.20Q186.71-3.05 187.09-4.90L187.09-4.90L187.09-4.90Q185.16-2.54 180.77-2.54L180.77-2.54L180.77-2.54Q177.72-2.54 175.96-4.00L175.96-4.00L175.96-4.00Q174.19-5.46 174.19-8.90L174.19-8.90L174.19-8.90Q174.19-11.05 174.92-13.48L174.92-13.48L174.92-13.48Q175.66-15.91 177.12-17.97ZM182.71-8.77L182.71-8.77L182.71-8.77Q182.71-5.85 184.21-5.85L184.21-5.85L184.21-5.85Q185.24-5.85 186.23-6.97L186.23-6.97L186.23-6.97Q187.01-7.87 187.31-9.20L187.31-9.20L189.50-20.25L189.50-20.25Q189.29-20.30 189.07-20.38L189.07-20.38L189.07-20.38Q188.64-20.55 188.08-20.55L188.08-20.55L188.08-20.55Q185.46-20.55 183.91-16.25L183.91-16.25L183.91-16.25Q182.71-12.90 182.71-8.77ZM236.59-17.85L236.59-17.85L236.59-17.85Q236.59 0.47 216.72 0.47L216.72 0.47L216.72 0.47Q213.54 0.47 208.29-0.30L208.29-0.30L213.11-25.71L213.11-25.71Q213.45-27.43 213.67-28.42L213.67-28.42L213.67-28.42Q220.20-28.90 223.11-28.90L223.11-28.90L223.11-28.90Q226.01-28.90 228.67-28.29L228.67-28.29L228.67-28.29Q231.34-27.69 233.10-26.36L233.10-26.36L233.10-26.36Q236.59-23.74 236.59-17.85ZM227.73-19.44L227.73-19.44L227.73-19.44Q227.73-25.84 223.13-25.84L223.13-25.84L222.70-25.84L222.70-25.84Q222.48-25.84 222.27-25.80L222.27-25.80L217.84-2.71L217.84-2.71Q218.01-2.62 218.18-2.62L218.18-2.62L218.53-2.62L218.53-2.62Q220.12-2.62 221.77-3.61L221.77-3.61L221.77-3.61Q223.43-4.60 224.72-6.62L224.72-6.62L224.72-6.62Q227.73-11.31 227.73-19.44ZM240.65-1.29L240.65-1.29L240.65-1.29Q239.64-2.41 239.19-4.17L239.19-4.17L239.19-4.17Q238.74-5.93 238.74-8.82L238.74-8.82L238.74-8.82Q238.74-11.70 239.73-14.32L239.73-14.32L239.73-14.32Q240.71-16.94 242.52-18.83L242.52-18.83L242.52-18.83Q246.22-22.79 252.32-22.79L252.32-22.79L252.32-22.79Q254.52-22.79 256.11-22.06L256.11-22.06L263.46-22.79L260.28-6.02L260.28-6.02Q260.15-5.50 260.15-4.56L260.15-4.56L260.15-4.56Q260.15-3.61 260.73-3.01L260.73-3.01L260.73-3.01Q261.31-2.41 262.17-2.32L262.17-2.32L262.17-2.32Q261.74-0.86 260.17 0L260.17 0L260.17 0Q258.60 0.86 256.84 0.86L256.84 0.86L256.84 0.86Q255.08 0.86 253.89 0.19L253.89 0.19L253.89 0.19Q252.71-0.47 252.37-1.59L252.37-1.59L252.37-1.59Q251.68-0.52 250.22 0.17L250.22 0.17L250.22 0.17Q248.76 0.86 246.80 0.86L246.80 0.86L246.80 0.86Q244.84 0.86 243.25 0.34L243.25 0.34L243.25 0.34Q241.66-0.17 240.65-1.29ZM249.72-18.75L249.72-18.75L249.72-18.75Q249.23-17.97 248.80-16.66L248.80-16.66L248.80-16.66Q248.37-15.35 247.66-11.85L247.66-11.85L247.66-11.85Q246.95-8.34 246.95-5.85L246.95-5.85L246.95-5.85Q246.95-3.35 247.34-2.62L247.34-2.62L247.34-2.62Q247.72-1.89 248.41-1.89L248.41-1.89L248.41-1.89Q249.79-1.89 250.80-3.20L250.80-3.20L250.80-3.20Q251.81-4.52 252.20-6.84L252.20-6.84L254.47-19.44L254.47-19.44Q253.57-20.21 252.52-20.21L252.52-20.21L252.52-20.21Q251.46-20.21 250.84-19.87L250.84-19.87L250.84-19.87Q250.22-19.52 249.72-18.75ZM279.46-4.86L279.46-4.86L279.46-4.86Q277.22-2.54 273.14-2.54L273.14-2.54L273.14-2.54Q268.02-2.54 266.94-6.28L266.94-6.28L266.94-6.28Q266.60-7.40 266.60-8.64L266.60-8.64L266.60-8.64Q266.60-9.89 266.86-11.18L266.86-11.18L268.88-21.93L277.61-22.79L275.24-10.28L275.24-10.28Q275.16-9.72 275.03-9.12L275.03-9.12L275.03-9.12Q274.90-8.51 274.90-7.89L274.90-7.89L274.90-7.89Q274.90-7.27 275.11-6.86L275.11-6.86L275.11-6.86Q275.33-6.45 275.63-6.19L275.63-6.19L275.63-6.19Q276.15-5.85 277.07-5.85L277.07-5.85L277.07-5.85Q278.00-5.85 278.79-6.97L278.79-6.97L278.79-6.97Q279.59-8.08 279.97-10.02L279.97-10.02L282.34-21.93L290.81-22.79L287.58-5.89L287.58-5.89Q285.99 2.37 282.73 5.63L282.73 5.63L282.73 5.63Q281.05 7.31 278.88 7.98L278.88 7.98L278.88 7.98Q276.71 8.64 273.91 8.64L273.91 8.64L273.91 8.64Q269.40 8.64 266.81 7.22L266.81 7.22L266.81 7.22Q264.24 5.81 264.24 3.44L264.24 3.44L264.24 3.44Q264.24 1.68 265.57 0.67L265.57 0.67L265.57 0.67Q266.90-0.34 268.97-0.34L268.97-0.34L268.97-0.34Q270.77-0.34 272.15 0.43L272.15 0.43L272.15 0.43Q272.96 0.90 273.35 1.51L273.35 1.51L273.35 1.51Q272.36 2.37 272.36 3.78L272.36 3.78L272.36 3.78Q272.36 5.68 274.08 5.68L274.08 5.68L274.08 5.68Q276.92 5.68 278.55-0.86L278.55-0.86L278.55-0.86Q279.03-2.80 279.46-4.86ZM304.66-20.94L304.66-20.94L304.66-20.94Q303.19-22.06 303.19-24.45L303.19-24.45L303.19-24.45Q303.19-26.83 304.76-28.08L304.76-28.08L304.76-28.08Q306.33-29.33 309.04-29.33L309.04-29.33L309.04-29.33Q310.76-29.33 314.85-28.72L314.85-28.72L317.77-28.29L317.77-28.29Q319.23-28.12 320.76-28.12L320.76-28.12L320.76-28.12Q322.29-28.12 323.32-28.77L323.32-28.77L323.32-28.77Q324.87-27.39 324.87-25.41L324.87-25.41L324.87-25.41Q324.87-23.44 323.10-22.02L323.10-22.02L323.10-22.02Q321.30-20.51 318.97-20.51L318.97-20.51L318.97-20.51Q317.86-20.51 316.05-20.81L316.05-20.81L316.05-20.81Q313.94-14.19 313.94-9.59L313.94-9.59L313.94-9.59Q313.94-4.99 316.27-2.58L316.27-2.58L316.27-2.58Q315.19-0.65 313.60 0.11L313.60 0.11L313.60 0.11Q312.01 0.86 309.62 0.86L309.62 0.86L309.62 0.86Q307.24 0.86 305.75-0.45L305.75-0.45L305.75-0.45Q304.27-1.76 304.27-4.47L304.27-4.47L304.27-4.47Q304.27-7.61 305.99-12.77L305.99-12.77L305.99-12.77Q307.71-17.89 310.29-21.80L310.29-21.80L310.29-21.80Q309.04-21.93 307.75-21.93L307.75-21.93L307.75-21.93Q305.09-21.93 304.66-20.94ZM337.03-1.81L337.03-1.81L337.03-1.81Q334.97 0.86 329.85 0.86L329.85 0.86L329.85 0.86Q327.19 0.86 325.25-0.75L325.25-0.75L325.25-0.75Q323.32-2.37 323.32-4.69L323.32-4.69L323.32-4.69Q323.32-5.98 323.45-6.62L323.45-6.62L326.33-21.93L335.06-22.79L331.92-6.19L331.92-6.19Q331.75-5.25 331.75-4.69L331.75-4.69L331.75-4.69Q331.75-2.19 333.25-2.19L333.25-2.19L333.25-2.19Q334.93-2.19 336.13-4.47L336.13-4.47L336.13-4.47Q336.52-5.20 336.69-6.15L336.69-6.15L339.74-21.93L348.21-22.79L345.03-6.02L345.03-6.02Q344.90-5.38 344.90-4.69L344.90-4.69L344.90-4.69Q344.90-4.00 345.29-3.25L345.29-3.25L345.29-3.25Q345.68-2.49 346.92-2.32L346.92-2.32L346.92-2.32Q346.67-1.29 345.76-0.60L345.76-0.60L345.76-0.60Q343.87 0.86 341.83 0.86L341.83 0.86L341.83 0.86Q339.79 0.86 338.58 0.13L338.58 0.13L338.58 0.13Q337.38-0.60 337.03-1.81ZM381.84-8.90L381.84-8.90L381.84-8.90Q382.96-8.08 382.96-6.34L382.96-6.34L382.96-6.34Q382.96-4.60 382.21-3.38L382.21-3.38L382.21-3.38Q381.45-2.15 379.99-1.20L379.99-1.20L379.99-1.20Q376.85 0.82 371.37 0.82L371.37 0.82L371.37 0.82Q365.89 0.82 362.90-2.04L362.90-2.04L362.90-2.04Q359.91-4.90 359.91-9.98L359.91-9.98L359.91-9.98Q359.91-17.16 363.65-22.62L363.65-22.62L363.65-22.62Q366.49-26.66 371.56-28.38L371.56-28.38L371.56-28.38Q374.19-29.24 376.77-29.24L376.77-29.24L376.77-29.24Q379.35-29.24 380.94-28.90L380.94-28.90L380.94-28.90Q382.53-28.55 383.73-27.86L383.73-27.86L383.73-27.86Q386.36-26.36 386.36-23.95L386.36-23.95L386.36-23.95Q386.36-21.76 384.29-20.12L384.29-20.12L384.29-20.12Q382.40-18.66 380.85-18.66L380.85-18.66L380.85-18.66Q379.30-18.66 378.66-18.88L378.66-18.88L378.66-18.88Q378.83-20.43 378.83-21.44L378.83-21.44L378.83-21.44Q378.83-22.45 378.79-23.18L378.79-23.18L378.79-23.18Q378.74-23.91 378.53-24.60L378.53-24.60L378.53-24.60Q378.10-26.19 376.79-26.19L376.79-26.19L376.79-26.19Q375.48-26.19 374.16-24.96L374.16-24.96L374.16-24.96Q372.85-23.74 371.74-21.67L371.74-21.67L371.74-21.67Q369.20-16.99 369.20-11.44L369.20-11.44L369.20-11.44Q369.20-8.77 370.70-7.25L370.70-7.25L370.70-7.25Q372.21-5.72 375.43-5.72L375.43-5.72L375.43-5.72Q377.84-5.72 380.12-7.31L380.12-7.31L380.12-7.31Q381.11-8.00 381.84-8.90ZM408.16-4.77L408.16-4.77L408.16-4.77Q408.16-2.88 410.09-2.32L410.09-2.32L410.09-2.32Q409.62-0.73 407.77 0.13L407.77 0.13L407.77 0.13Q406.22 0.86 404.52 0.86L404.52 0.86L404.52 0.86Q402.82 0.86 401.94 0.41L401.94 0.41L401.94 0.41Q401.06-0.04 400.59-0.77L400.59-0.77L400.59-0.77Q399.81-1.89 399.81-4.00L399.81-4.00L399.81-4.00Q399.81-5.25 400.50-8.69L400.50-8.69L401.10-11.95L401.10-11.95Q401.84-15.70 401.84-17.07L401.84-17.07L401.84-17.07Q401.84-19.48 400.50-19.48L400.50-19.48L400.50-19.48Q398.83-19.48 397.75-17.03L397.75-17.03L397.75-17.03Q397.32-16.08 397.02-14.66L397.02-14.66L394.10 0L385.45 0.86L391.52-30.10L400.16-30.96L399.81-29.24L399.81-29.24Q398.61-22.62 397.58-20.38L397.58-20.38L397.58-20.38Q399.99-22.79 404.42-22.79L404.42-22.79L404.42-22.79Q409.10-22.79 409.96-19.69L409.96-19.69L409.96-19.69Q410.26-18.71 410.26-17.85L410.26-17.85L410.26-17.85Q410.26-16.99 410.20-16.32L410.20-16.32L410.20-16.32Q410.13-15.65 409.92-14.45L409.92-14.45L409.36-11.35L408.37-6.49L408.37-6.49Q408.16-5.50 408.16-4.77ZM423.89-2.37L423.89-2.37L423.89-2.37Q422.56 0.86 418.30 0.86L418.30 0.86L418.30 0.86Q416.11 0.86 414.74-0.65L414.74-0.65L414.74-0.65Q413.57-1.98 413.57-3.31L413.57-3.31L413.57-3.31Q413.57-6.79 415.17-13.59L415.17-13.59L416.76-21.93L425.49-22.79L422.86-9.20L422.86-9.20Q422.13-6.02 422.13-4.90L422.13-4.90L422.13-4.90Q422.13-2.45 423.89-2.37ZM417.53-27.91L417.53-27.91L417.53-27.91Q417.53-29.58 418.93-30.49L418.93-30.49L418.93-30.49Q420.33-31.39 422.35-31.39L422.35-31.39L422.35-31.39Q424.37-31.39 425.59-30.49L425.59-30.49L425.59-30.49Q426.82-29.58 426.82-27.91L426.82-27.91L426.82-27.91Q426.82-26.23 425.46-25.37L425.46-25.37L425.46-25.37Q424.11-24.51 422.09-24.51L422.09-24.51L422.09-24.51Q420.07-24.51 418.80-25.37L418.80-25.37L418.80-25.37Q417.53-26.23 417.53-27.91ZM444.96-7.27L444.96-7.27L444.96-7.27Q446.04-6.54 446.04-4.92L446.04-4.92L446.04-4.92Q446.04-3.31 445.22-2.28L445.22-2.28L445.22-2.28Q444.41-1.25 443.07-0.56L443.07-0.56L443.07-0.56Q440.32 0.86 437.35 0.86L437.35 0.86L437.35 0.86Q434.39 0.86 432.64 0.22L432.64 0.22L432.64 0.22Q430.90-0.43 429.74-1.63L429.74-1.63L429.74-1.63Q427.46-3.91 427.46-8.08L427.46-8.08L427.46-8.08Q427.46-14.58 430.99-18.53L430.99-18.53L430.99-18.53Q434.77-22.79 441.35-22.79L441.35-22.79L441.35-22.79Q445.44-22.79 447.46-21.07L447.46-21.07L447.46-21.07Q448.96-19.78 448.96-17.67L448.96-17.67L448.96-17.67Q448.96-10.11 435.89-10.11L435.89-10.11L435.89-10.11Q435.72-8.99 435.72-8.04L435.72-8.04L435.72-8.04Q435.72-6.06 436.60-5.31L436.60-5.31L436.60-5.31Q437.48-4.56 439.12-4.56L439.12-4.56L439.12-4.56Q440.75-4.56 442.49-5.31L442.49-5.31L442.49-5.31Q444.23-6.06 444.96-7.27ZM436.19-11.95L436.19-11.95L436.19-11.95Q439.25-11.95 441.01-13.85L441.01-13.85L441.01-13.85Q442.77-15.65 442.77-18.53L442.77-18.53L442.77-18.53Q442.77-19.52 442.41-20.06L442.41-20.06L442.41-20.06Q442.04-20.60 441.31-20.60L441.31-20.60L441.31-20.60Q440.58-20.60 439.95-20.32L439.95-20.32L439.95-20.32Q439.33-20.04 438.69-19.09L438.69-19.09L438.69-19.09Q437.10-16.94 436.19-11.95ZM464.23-1.81L464.23-1.81L464.23-1.81Q462.16 0.86 457.05 0.86L457.05 0.86L457.05 0.86Q454.38 0.86 452.45-0.75L452.45-0.75L452.45-0.75Q450.51-2.37 450.51-4.69L450.51-4.69L450.51-4.69Q450.51-5.98 450.64-6.62L450.64-6.62L453.52-21.93L462.25-22.79L459.11-6.19L459.11-6.19Q458.94-5.25 458.94-4.69L458.94-4.69L458.94-4.69Q458.94-2.19 460.44-2.19L460.44-2.19L460.44-2.19Q462.12-2.19 463.33-4.47L463.33-4.47L463.33-4.47Q463.71-5.20 463.88-6.15L463.88-6.15L466.94-21.93L475.41-22.79L472.23-6.02L472.23-6.02Q472.10-5.38 472.10-4.69L472.10-4.69L472.10-4.69Q472.10-4.00 472.48-3.25L472.48-3.25L472.48-3.25Q472.87-2.49 474.12-2.32L474.12-2.32L474.12-2.32Q473.86-1.29 472.96-0.60L472.96-0.60L472.96-0.60Q471.07 0.86 469.02 0.86L469.02 0.86L469.02 0.86Q466.98 0.86 465.78 0.13L465.78 0.13L465.78 0.13Q464.57-0.60 464.23-1.81ZM509.03-8.90L509.03-8.90L509.03-8.90Q510.15-8.08 510.15-6.34L510.15-6.34L510.15-6.34Q510.15-4.60 509.40-3.38L509.40-3.38L509.40-3.38Q508.65-2.15 507.19-1.20L507.19-1.20L507.19-1.20Q504.05 0.82 498.56 0.82L498.56 0.82L498.56 0.82Q493.08 0.82 490.09-2.04L490.09-2.04L490.09-2.04Q487.10-4.90 487.10-9.98L487.10-9.98L487.10-9.98Q487.10-17.16 490.85-22.62L490.85-22.62L490.85-22.62Q493.68-26.66 498.76-28.38L498.76-28.38L498.76-28.38Q501.38-29.24 503.96-29.24L503.96-29.24L503.96-29.24Q506.54-29.24 508.13-28.90L508.13-28.90L508.13-28.90Q509.72-28.55 510.93-27.86L510.93-27.86L510.93-27.86Q513.55-26.36 513.55-23.95L513.55-23.95L513.55-23.95Q513.55-21.76 511.49-20.12L511.49-20.12L511.49-20.12Q509.59-18.66 508.05-18.66L508.05-18.66L508.05-18.66Q506.50-18.66 505.85-18.88L505.85-18.88L505.85-18.88Q506.02-20.43 506.02-21.44L506.02-21.44L506.02-21.44Q506.02-22.45 505.98-23.18L505.98-23.18L505.98-23.18Q505.94-23.91 505.72-24.60L505.72-24.60L505.72-24.60Q505.29-26.19 503.98-26.19L503.98-26.19L503.98-26.19Q502.67-26.19 501.36-24.96L501.36-24.96L501.36-24.96Q500.05-23.74 498.93-21.67L498.93-21.67L498.93-21.67Q496.39-16.99 496.39-11.44L496.39-11.44L496.39-11.44Q496.39-8.77 497.90-7.25L497.90-7.25L497.90-7.25Q499.40-5.72 502.63-5.72L502.63-5.72L502.63-5.72Q505.04-5.72 507.31-7.31L507.31-7.31L507.31-7.31Q508.30-8.00 509.03-8.90ZM535.35-4.77L535.35-4.77L535.35-4.77Q535.35-2.88 537.29-2.32L537.29-2.32L537.29-2.32Q536.81-0.73 534.96 0.13L534.96 0.13L534.96 0.13Q533.42 0.86 531.72 0.86L531.72 0.86L531.72 0.86Q530.02 0.86 529.14 0.41L529.14 0.41L529.14 0.41Q528.26-0.04 527.78-0.77L527.78-0.77L527.78-0.77Q527.01-1.89 527.01-4.00L527.01-4.00L527.01-4.00Q527.01-5.25 527.70-8.69L527.70-8.69L528.30-11.95L528.30-11.95Q529.03-15.70 529.03-17.07L529.03-17.07L529.03-17.07Q529.03-19.48 527.70-19.48L527.70-19.48L527.70-19.48Q526.02-19.48 524.94-17.03L524.94-17.03L524.94-17.03Q524.51-16.08 524.21-14.66L524.21-14.66L521.29 0L512.65 0.86L518.71-30.10L527.35-30.96L527.01-29.24L527.01-29.24Q525.80-22.62 524.77-20.38L524.77-20.38L524.77-20.38Q527.18-22.79 531.61-22.79L531.61-22.79L531.61-22.79Q536.30-22.79 537.16-19.69L537.16-19.69L537.16-19.69Q537.46-18.71 537.46-17.85L537.46-17.85L537.46-17.85Q537.46-16.99 537.39-16.32L537.39-16.32L537.39-16.32Q537.33-15.65 537.11-14.45L537.11-14.45L536.55-11.35L535.57-6.49L535.57-6.49Q535.35-5.50 535.35-4.77ZM551.09-2.37L551.09-2.37L551.09-2.37Q549.76 0.86 545.50 0.86L545.50 0.86L545.50 0.86Q543.31 0.86 541.93-0.65L541.93-0.65L541.93-0.65Q540.77-1.98 540.77-3.31L540.77-3.31L540.77-3.31Q540.77-6.79 542.36-13.59L542.36-13.59L543.95-21.93L552.68-22.79L550.06-9.20L550.06-9.20Q549.33-6.02 549.33-4.90L549.33-4.90L549.33-4.90Q549.33-2.45 551.09-2.37ZM544.72-27.91L544.72-27.91L544.72-27.91Q544.72-29.58 546.12-30.49L546.12-30.49L546.12-30.49Q547.52-31.39 549.54-31.39L549.54-31.39L549.54-31.39Q551.56-31.39 552.79-30.49L552.79-30.49L552.79-30.49Q554.01-29.58 554.01-27.91L554.01-27.91L554.01-27.91Q554.01-26.23 552.66-25.37L552.66-25.37L552.66-25.37Q551.30-24.51 549.28-24.51L549.28-24.51L549.28-24.51Q547.26-24.51 545.99-25.37L545.99-25.37L545.99-25.37Q544.72-26.23 544.72-27.91ZM591.51-17.85L591.51-17.85L591.51-17.85Q591.51 0.47 571.64 0.47L571.64 0.47L571.64 0.47Q568.46 0.47 563.21-0.30L563.21-0.30L568.03-25.71L568.03-25.71Q568.37-27.43 568.59-28.42L568.59-28.42L568.59-28.42Q575.13-28.90 578.03-28.90L578.03-28.90L578.03-28.90Q580.93-28.90 583.60-28.29L583.60-28.29L583.60-28.29Q586.26-27.69 588.03-26.36L588.03-26.36L588.03-26.36Q591.51-23.74 591.51-17.85ZM582.65-19.44L582.65-19.44L582.65-19.44Q582.65-25.84 578.05-25.84L578.05-25.84L577.62-25.84L577.62-25.84Q577.40-25.84 577.19-25.80L577.19-25.80L572.76-2.71L572.76-2.71Q572.93-2.62 573.10-2.62L573.10-2.62L573.45-2.62L573.45-2.62Q575.04-2.62 576.69-3.61L576.69-3.61L576.69-3.61Q578.35-4.60 579.64-6.62L579.64-6.62L579.64-6.62Q582.65-11.31 582.65-19.44ZM611.12-7.27L611.12-7.27L611.12-7.27Q612.19-6.54 612.19-4.92L612.19-4.92L612.19-4.92Q612.19-3.31 611.37-2.28L611.37-2.28L611.37-2.28Q610.56-1.25 609.22-0.56L609.22-0.56L609.22-0.56Q606.47 0.86 603.51 0.86L603.51 0.86L603.51 0.86Q600.54 0.86 598.80 0.22L598.80 0.22L598.80 0.22Q597.06-0.43 595.89-1.63L595.89-1.63L595.89-1.63Q593.62-3.91 593.62-8.08L593.62-8.08L593.62-8.08Q593.62-14.58 597.14-18.53L597.14-18.53L597.14-18.53Q600.93-22.79 607.50-22.79L607.50-22.79L607.50-22.79Q611.59-22.79 613.61-21.07L613.61-21.07L613.61-21.07Q615.12-19.78 615.12-17.67L615.12-17.67L615.12-17.67Q615.12-10.11 602.04-10.11L602.04-10.11L602.04-10.11Q601.87-8.99 601.87-8.04L601.87-8.04L601.87-8.04Q601.87-6.06 602.75-5.31L602.75-5.31L602.75-5.31Q603.63-4.56 605.27-4.56L605.27-4.56L605.27-4.56Q606.90-4.56 608.64-5.31L608.64-5.31L608.64-5.31Q610.39-6.06 611.12-7.27ZM602.34-11.95L602.34-11.95L602.34-11.95Q605.40-11.95 607.16-13.85L607.16-13.85L607.16-13.85Q608.92-15.65 608.92-18.53L608.92-18.53L608.92-18.53Q608.92-19.52 608.56-20.06L608.56-20.06L608.56-20.06Q608.19-20.60 607.46-20.60L607.46-20.60L607.46-20.60Q606.73-20.60 606.11-20.32L606.11-20.32L606.11-20.32Q605.48-20.04 604.84-19.09L604.84-19.09L604.84-19.09Q603.25-16.94 602.34-11.95ZM647.88-8.90L647.88-8.90L647.88-8.90Q649.00-8.08 649.00-6.34L649.00-6.34L649.00-6.34Q649.00-4.60 648.25-3.38L648.25-3.38L648.25-3.38Q647.49-2.15 646.03-1.20L646.03-1.20L646.03-1.20Q642.89 0.82 637.41 0.82L637.41 0.82L637.41 0.82Q631.93 0.82 628.94-2.04L628.94-2.04L628.94-2.04Q625.95-4.90 625.95-9.98L625.95-9.98L625.95-9.98Q625.95-17.16 629.69-22.62L629.69-22.62L629.69-22.62Q632.53-26.66 637.60-28.38L637.60-28.38L637.60-28.38Q640.23-29.24 642.81-29.24L642.81-29.24L642.81-29.24Q645.39-29.24 646.98-28.90L646.98-28.90L646.98-28.90Q648.57-28.55 649.77-27.86L649.77-27.86L649.77-27.86Q652.40-26.36 652.40-23.95L652.40-23.95L652.40-23.95Q652.40-21.76 650.33-20.12L650.33-20.12L650.33-20.12Q648.44-18.66 646.89-18.66L646.89-18.66L646.89-18.66Q645.34-18.66 644.70-18.88L644.70-18.88L644.70-18.88Q644.87-20.43 644.87-21.44L644.87-21.44L644.87-21.44Q644.87-22.45 644.83-23.18L644.83-23.18L644.83-23.18Q644.79-23.91 644.57-24.60L644.57-24.60L644.57-24.60Q644.14-26.19 642.83-26.19L642.83-26.19L642.83-26.19Q641.52-26.19 640.21-24.96L640.21-24.96L640.21-24.96Q638.89-23.74 637.78-21.67L637.78-21.67L637.78-21.67Q635.24-16.99 635.24-11.44L635.24-11.44L635.24-11.44Q635.24-8.77 636.74-7.25L636.74-7.25L636.74-7.25Q638.25-5.72 641.47-5.72L641.47-5.72L641.47-5.72Q643.88-5.72 646.16-7.31L646.16-7.31L646.16-7.31Q647.15-8.00 647.88-8.90ZM674.20-4.77L674.20-4.77L674.20-4.77Q674.20-2.88 676.13-2.32L676.13-2.32L676.13-2.32Q675.66-0.73 673.81 0.13L673.81 0.13L673.81 0.13Q672.26 0.86 670.56 0.86L670.56 0.86L670.56 0.86Q668.87 0.86 667.98 0.41L667.98 0.41L667.98 0.41Q667.10-0.04 666.63-0.77L666.63-0.77L666.63-0.77Q665.86-1.89 665.86-4.00L665.86-4.00L665.86-4.00Q665.86-5.25 666.54-8.69L666.54-8.69L667.15-11.95L667.15-11.95Q667.88-15.70 667.88-17.07L667.88-17.07L667.88-17.07Q667.88-19.48 666.54-19.48L666.54-19.48L666.54-19.48Q664.87-19.48 663.79-17.03L663.79-17.03L663.79-17.03Q663.36-16.08 663.06-14.66L663.06-14.66L660.14 0L651.49 0.86L657.56-30.10L666.20-30.96L665.86-29.24L665.86-29.24Q664.65-22.62 663.62-20.38L663.62-20.38L663.62-20.38Q666.03-22.79 670.46-22.79L670.46-22.79L670.46-22.79Q675.14-22.79 676.00-19.69L676.00-19.69L676.00-19.69Q676.30-18.71 676.30-17.85L676.30-17.85L676.30-17.85Q676.30-16.99 676.24-16.32L676.24-16.32L676.24-16.32Q676.18-15.65 675.96-14.45L675.96-14.45L675.40-11.35L674.41-6.49L674.41-6.49Q674.20-5.50 674.20-4.77ZM688.99 0.86L688.99 0.86L688.99 0.86Q679.53 0.86 679.53-8.04L679.53-8.04L679.53-8.04Q679.53-14.36 683.01-18.45L683.01-18.45L683.01-18.45Q686.71-22.79 693.12-22.79L693.12-22.79L693.12-22.79Q697.76-22.79 700.13-20.64L700.13-20.64L700.13-20.64Q702.49-18.49 702.49-13.98L702.49-13.98L702.49-13.98Q702.49-7.10 698.79-3.10L698.79-3.10L698.79-3.10Q695.18 0.86 688.99 0.86ZM690.11-17.85L690.11-17.85L690.11-17.85Q689.59-16.68 689.18-14.94L689.18-14.94L689.18-14.94Q688.77-13.20 688.26-10.45L688.26-10.45L688.26-10.45Q687.74-7.70 687.74-4.30L687.74-4.30L687.74-4.30Q687.74-3.18 688.11-2.45L688.11-2.45L688.11-2.45Q688.47-1.72 689.46-1.72L689.46-1.72L689.46-1.72Q690.45-1.72 691.07-2.19L691.07-2.19L691.07-2.19Q691.70-2.67 692.17-3.78L692.17-3.78L692.17-3.78Q693.03-5.76 693.72-9.44L693.72-9.44L693.72-9.44Q694.41-13.12 694.47-14.71L694.47-14.71L694.47-14.71Q694.54-16.30 694.54-17.48L694.54-17.48L694.54-17.48Q694.54-18.66 694.19-19.44L694.19-19.44L694.19-19.44Q693.85-20.21 692.88-20.21L692.88-20.21L692.88-20.21Q691.91-20.21 691.27-19.61L691.27-19.61L691.27-19.61Q690.62-19.01 690.11-17.85ZM732.25-6.62L732.25-6.62L732.25-6.62Q733.06-5.59 733.06-3.91L733.06-3.91L733.06-3.91Q733.06-1.59 731.34-0.37L731.34-0.37L731.34-0.37Q729.62 0.86 726.92 0.86L726.92 0.86L726.92 0.86Q725.37 0.86 723.00 0.52L723.00 0.52L723.00 0.52Q718.36-0.22 716.94-0.22L716.94-0.22L716.94-0.22Q715.52-0.22 714.96-0.15L714.96-0.15L714.96-0.15Q714.40-0.09 713.50 0L713.50 0L718.79-28.38L737.32-28.38L737.32-28.38Q737.32-25.76 736.05-24.38L736.05-24.38L736.05-24.38Q734.78-23.01 732.29-23.01L732.29-23.01L732.29-23.01Q729.80-23.01 727.26-24.17L727.26-24.17L725.93-16.64L733.58-16.64L733.58-16.64Q733.58-14.36 732.46-13.09L732.46-13.09L732.46-13.09Q731.34-11.83 729.47-11.83L729.47-11.83L729.47-11.83Q727.60-11.83 726.44-12.26L726.44-12.26L726.44-12.26Q725.28-12.69 725.15-12.81L725.15-12.81L723.60-4.69L723.60-4.69Q724.64-4.56 726.57-4.56L726.57-4.56L726.57-4.56Q729.88-4.56 732.25-6.62ZM767.98 0.86L767.98 0.86L767.98 0.86Q762.78 0.86 762.78-3.18L762.78-3.18L762.78-3.18Q762.78-4.95 763.53-8.36L763.53-8.36L763.53-8.36Q764.28-11.78 764.54-13.16L764.54-13.16L764.54-13.16Q765.14-16.30 765.14-17.29L765.14-17.29L765.14-17.29Q765.14-19.48 763.51-19.48L763.51-19.48L763.51-19.48Q762.43-19.48 761.40-18.00L761.40-18.00L761.40-18.00Q760.37-16.51 759.90-13.55L759.90-13.55L757.23 0L748.85 0.86L751.17-10.84L751.17-10.84Q751.55-12.77 751.90-14.96L751.90-14.96L751.90-14.96Q752.24-17.16 752.24-17.50L752.24-17.50L752.24-17.50Q752.24-19.48 750.78-19.48L750.78-19.48L750.78-19.48Q749.79-19.48 748.72-18.02L748.72-18.02L748.72-18.02Q747.64-16.55 747.04-13.55L747.04-13.55L744.42 0L735.95 0.86L740.46-21.93L747.47-22.79L746.74-18.45L746.74-18.45Q747.86-20.77 749.92-21.78L749.92-21.78L749.92-21.78Q751.98-22.79 755.21-22.79L755.21-22.79L755.21-22.79Q757.06-22.79 758.26-21.89L758.26-21.89L758.26-21.89Q759.47-20.98 759.85-19.52L759.85-19.52L759.85-19.52Q760.58-21.03 762.45-21.91L762.45-21.91L762.45-21.91Q764.33-22.79 766.63-22.79L766.63-22.79L766.63-22.79Q768.93-22.79 770.07-22.30L770.07-22.30L770.07-22.30Q771.21-21.80 771.89-20.98L771.89-20.98L771.89-20.98Q773.05-19.48 773.05-16.73L773.05-16.73L773.05-16.73Q773.05-14.02 771.89-8.39L771.89-8.39L771.89-8.39Q771.29-5.63 771.29-4.62L771.29-4.62L771.29-4.62Q771.29-3.61 771.87-3.01L771.87-3.01L771.87-3.01Q772.45-2.41 773.31-2.32L773.31-2.32L773.31-2.32Q772.88-0.86 771.40 0L771.40 0L771.40 0Q769.92 0.86 767.98 0.86ZM786.81-26.79L786.81-26.79L786.81-26.79Q788.84-29.15 792.19-29.15L792.19-29.15L792.19-29.15Q794.86-29.15 796.27-28.12L796.27-28.12L796.27-28.12Q797.69-27.05 798.64-24.42L798.64-24.42L800.45-19.31L806.94-28.34L812.74-28.34L802.21-14.36L804.92-6.71L804.92-6.71Q805.52-4.99 806.57-3.72L806.57-3.72L806.57-3.72Q807.63-2.45 808.57-2.24L808.57-2.24L808.57-2.24Q807.71-0.60 806.23 0.13L806.23 0.13L806.23 0.13Q804.75 0.86 802.57 0.86L802.57 0.86L802.57 0.86Q800.40 0.86 798.88-0.56L798.88-0.56L798.88-0.56Q797.35-1.98 796.19-5.16L796.19-5.16L794.94-8.60L788.45 0L783.16 0L793.05-13.72L789.95-22.36L789.95-22.36Q789.26-24.25 788.58-25.22L788.58-25.22L788.58-25.22Q787.89-26.19 786.81-26.79ZM828.31-7.27L828.31-7.27L828.31-7.27Q829.38-6.54 829.38-4.92L829.38-4.92L829.38-4.92Q829.38-3.31 828.57-2.28L828.57-2.28L828.57-2.28Q827.75-1.25 826.42-0.56L826.42-0.56L826.42-0.56Q823.66 0.86 820.70 0.86L820.70 0.86L820.70 0.86Q817.73 0.86 815.99 0.22L815.99 0.22L815.99 0.22Q814.25-0.43 813.09-1.63L813.09-1.63L813.09-1.63Q810.81-3.91 810.81-8.08L810.81-8.08L810.81-8.08Q810.81-14.58 814.33-18.53L814.33-18.53L814.33-18.53Q818.12-22.79 824.70-22.79L824.70-22.79L824.70-22.79Q828.78-22.79 830.80-21.07L830.80-21.07L830.80-21.07Q832.31-19.78 832.31-17.67L832.31-17.67L832.31-17.67Q832.31-10.11 819.24-10.11L819.24-10.11L819.24-10.11Q819.06-8.99 819.06-8.04L819.06-8.04L819.06-8.04Q819.06-6.06 819.95-5.31L819.95-5.31L819.95-5.31Q820.83-4.56 822.46-4.56L822.46-4.56L822.46-4.56Q824.10-4.56 825.84-5.31L825.84-5.31L825.84-5.31Q827.58-6.06 828.31-7.27ZM819.54-11.95L819.54-11.95L819.54-11.95Q822.59-11.95 824.35-13.85L824.35-13.85L824.35-13.85Q826.12-15.65 826.12-18.53L826.12-18.53L826.12-18.53Q826.12-19.52 825.75-20.06L825.75-20.06L825.75-20.06Q825.38-20.60 824.65-20.60L824.65-20.60L824.65-20.60Q823.92-20.60 823.30-20.32L823.30-20.32L823.30-20.32Q822.68-20.04 822.03-19.09L822.03-19.09L822.03-19.09Q820.44-16.94 819.54-11.95ZM864.73 0.86L864.73 0.86L864.73 0.86Q859.53 0.86 859.53-3.18L859.53-3.18L859.53-3.18Q859.53-4.95 860.28-8.36L860.28-8.36L860.28-8.36Q861.03-11.78 861.29-13.16L861.29-13.16L861.29-13.16Q861.89-16.30 861.89-17.29L861.89-17.29L861.89-17.29Q861.89-19.48 860.26-19.48L860.26-19.48L860.26-19.48Q859.18-19.48 858.15-18.00L858.15-18.00L858.15-18.00Q857.12-16.51 856.65-13.55L856.65-13.55L853.98 0L845.60 0.86L847.92-10.84L847.92-10.84Q848.30-12.77 848.65-14.96L848.65-14.96L848.65-14.96Q848.99-17.16 848.99-17.50L848.99-17.50L848.99-17.50Q848.99-19.48 847.53-19.48L847.53-19.48L847.53-19.48Q846.54-19.48 845.47-18.02L845.47-18.02L845.47-18.02Q844.39-16.55 843.79-13.55L843.79-13.55L841.17 0L832.69 0.86L837.21-21.93L844.22-22.79L843.49-18.45L843.49-18.45Q844.61-20.77 846.67-21.78L846.67-21.78L846.67-21.78Q848.73-22.79 851.96-22.79L851.96-22.79L851.96-22.79Q853.81-22.79 855.01-21.89L855.01-21.89L855.01-21.89Q856.22-20.98 856.60-19.52L856.60-19.52L856.60-19.52Q857.33-21.03 859.20-21.91L859.20-21.91L859.20-21.91Q861.08-22.79 863.38-22.79L863.38-22.79L863.38-22.79Q865.68-22.79 866.82-22.30L866.82-22.30L866.82-22.30Q867.96-21.80 868.64-20.98L868.64-20.98L868.64-20.98Q869.80-19.48 869.80-16.73L869.80-16.73L869.80-16.73Q869.80-14.02 868.64-8.39L868.64-8.39L868.64-8.39Q868.04-5.63 868.04-4.62L868.04-4.62L868.04-4.62Q868.04-3.61 868.62-3.01L868.62-3.01L868.62-3.01Q869.20-2.41 870.06-2.32L870.06-2.32L870.06-2.32Q869.63-0.86 868.15 0L868.15 0L868.15 0Q866.66 0.86 864.73 0.86ZM885.67-20.94L885.67-20.94L885.67-20.94Q884.21-22.06 884.21-24.45L884.21-24.45L884.21-24.45Q884.21-26.83 885.78-28.08L885.78-28.08L885.78-28.08Q887.35-29.33 890.06-29.33L890.06-29.33L890.06-29.33Q891.78-29.33 895.86-28.72L895.86-28.72L898.79-28.29L898.79-28.29Q900.25-28.12 901.77-28.12L901.77-28.12L901.77-28.12Q903.30-28.12 904.33-28.77L904.33-28.77L904.33-28.77Q905.88-27.39 905.88-25.41L905.88-25.41L905.88-25.41Q905.88-23.44 904.12-22.02L904.12-22.02L904.12-22.02Q902.31-20.51 899.99-20.51L899.99-20.51L899.99-20.51Q898.87-20.51 897.07-20.81L897.07-20.81L897.07-20.81Q894.96-14.19 894.96-9.59L894.96-9.59L894.96-9.59Q894.96-4.99 897.28-2.58L897.28-2.58L897.28-2.58Q896.21-0.65 894.61 0.11L894.61 0.11L894.61 0.11Q893.02 0.86 890.64 0.86L890.64 0.86L890.64 0.86Q888.25 0.86 886.77-0.45L886.77-0.45L886.77-0.45Q885.28-1.76 885.28-4.47L885.28-4.47L885.28-4.47Q885.28-7.61 887.00-12.77L887.00-12.77L887.00-12.77Q888.72-17.89 891.30-21.80L891.30-21.80L891.30-21.80Q890.06-21.93 888.77-21.93L888.77-21.93L888.77-21.93Q886.10-21.93 885.67-20.94ZM926.13-4.77L926.13-4.77L926.13-4.77Q926.13-2.88 928.07-2.32L928.07-2.32L928.07-2.32Q927.60-0.73 925.75 0.13L925.75 0.13L925.75 0.13Q924.20 0.86 922.50 0.86L922.50 0.86L922.50 0.86Q920.80 0.86 919.92 0.41L919.92 0.41L919.92 0.41Q919.04-0.04 918.57-0.77L918.57-0.77L918.57-0.77Q917.79-1.89 917.79-4.00L917.79-4.00L917.79-4.00Q917.79-5.25 918.48-8.69L918.48-8.69L919.08-11.95L919.08-11.95Q919.81-15.70 919.81-17.07L919.81-17.07L919.81-17.07Q919.81-19.48 918.48-19.48L918.48-19.48L918.48-19.48Q916.80-19.48 915.73-17.03L915.73-17.03L915.73-17.03Q915.30-16.08 915.00-14.66L915.00-14.66L912.07 0L903.43 0.86L909.49-30.10L918.14-30.96L917.79-29.24L917.79-29.24Q916.59-22.62 915.56-20.38L915.56-20.38L915.56-20.38Q917.96-22.79 922.39-22.79L922.39-22.79L922.39-22.79Q927.08-22.79 927.94-19.69L927.94-19.69L927.94-19.69Q928.24-18.71 928.24-17.85L928.24-17.85L928.24-17.85Q928.24-16.99 928.18-16.32L928.18-16.32L928.18-16.32Q928.11-15.65 927.90-14.45L927.90-14.45L927.34-11.35L926.35-6.49L926.35-6.49Q926.13-5.50 926.13-4.77ZM940.93 0.86L940.93 0.86L940.93 0.86Q931.47 0.86 931.47-8.04L931.47-8.04L931.47-8.04Q931.47-14.36 934.95-18.45L934.95-18.45L934.95-18.45Q938.65-22.79 945.05-22.79L945.05-22.79L945.05-22.79Q949.70-22.79 952.06-20.64L952.06-20.64L952.06-20.64Q954.43-18.49 954.43-13.98L954.43-13.98L954.43-13.98Q954.43-7.10 950.73-3.10L950.73-3.10L950.73-3.10Q947.12 0.86 940.93 0.86ZM942.04-17.85L942.04-17.85L942.04-17.85Q941.53-16.68 941.12-14.94L941.12-14.94L941.12-14.94Q940.71-13.20 940.19-10.45L940.19-10.45L940.19-10.45Q939.68-7.70 939.68-4.30L939.68-4.30L939.68-4.30Q939.68-3.18 940.04-2.45L940.04-2.45L940.04-2.45Q940.41-1.72 941.40-1.72L941.40-1.72L941.40-1.72Q942.39-1.72 943.01-2.19L943.01-2.19L943.01-2.19Q943.63-2.67 944.11-3.78L944.11-3.78L944.11-3.78Q944.97-5.76 945.66-9.44L945.66-9.44L945.66-9.44Q946.34-13.12 946.41-14.71L946.41-14.71L946.41-14.71Q946.47-16.30 946.47-17.48L946.47-17.48L946.47-17.48Q946.47-18.66 946.13-19.44L946.13-19.44L946.13-19.44Q945.78-20.21 944.82-20.21L944.82-20.21L944.82-20.21Q943.85-20.21 943.20-19.61L943.20-19.61L943.20-19.61Q942.56-19.01 942.04-17.85ZM967.28-2.37L967.28-2.37L967.28-2.37Q965.95 0.86 961.69 0.86L961.69 0.86L961.69 0.86Q959.50 0.86 958.13-0.65L958.13-0.65L958.13-0.65Q956.96-1.98 956.96-3.31L956.96-3.31L956.96-3.31Q956.96-6.79 958.56-13.59L958.56-13.59L960.15-21.93L968.88-22.79L966.25-9.20L966.25-9.20Q965.52-6.02 965.52-4.90L965.52-4.90L965.52-4.90Q965.52-2.45 967.28-2.37ZM960.92-27.91L960.92-27.91L960.92-27.91Q960.92-29.58 962.32-30.49L962.32-30.49L962.32-30.49Q963.72-31.39 965.74-31.39L965.74-31.39L965.74-31.39Q967.76-31.39 968.98-30.49L968.98-30.49L968.98-30.49Q970.21-29.58 970.21-27.91L970.21-27.91L970.21-27.91Q970.21-26.23 968.85-25.37L968.85-25.37L968.85-25.37Q967.50-24.51 965.48-24.51L965.48-24.51L965.48-24.51Q963.46-24.51 962.19-25.37L962.19-25.37L962.19-25.37Q960.92-26.23 960.92-27.91ZM1007.70-17.85L1007.70-17.85L1007.70-17.85Q1007.70 0.47 987.84 0.47L987.84 0.47L987.84 0.47Q984.66 0.47 979.41-0.30L979.41-0.30L984.23-25.71L984.23-25.71Q984.57-27.43 984.79-28.42L984.79-28.42L984.79-28.42Q991.32-28.90 994.22-28.90L994.22-28.90L994.22-28.90Q997.13-28.90 999.79-28.29L999.79-28.29L999.79-28.29Q1002.46-27.69 1004.22-26.36L1004.22-26.36L1004.22-26.36Q1007.70-23.74 1007.70-17.85ZM998.85-19.44L998.85-19.44L998.85-19.44Q998.85-25.84 994.25-25.84L994.25-25.84L993.82-25.84L993.82-25.84Q993.60-25.84 993.39-25.80L993.39-25.80L988.96-2.71L988.96-2.71Q989.13-2.62 989.30-2.62L989.30-2.62L989.64-2.62L989.64-2.62Q991.24-2.62 992.89-3.61L992.89-3.61L992.89-3.61Q994.55-4.60 995.84-6.62L995.84-6.62L995.84-6.62Q998.85-11.31 998.85-19.44ZM1011.77-1.29L1011.77-1.29L1011.77-1.29Q1010.76-2.41 1010.31-4.17L1010.31-4.17L1010.31-4.17Q1009.85-5.93 1009.85-8.82L1009.85-8.82L1009.85-8.82Q1009.85-11.70 1010.84-14.32L1010.84-14.32L1010.84-14.32Q1011.83-16.94 1013.64-18.83L1013.64-18.83L1013.64-18.83Q1017.34-22.79 1023.44-22.79L1023.44-22.79L1023.44-22.79Q1025.64-22.79 1027.23-22.06L1027.23-22.06L1034.58-22.79L1031.40-6.02L1031.40-6.02Q1031.27-5.50 1031.27-4.56L1031.27-4.56L1031.27-4.56Q1031.27-3.61 1031.85-3.01L1031.85-3.01L1031.85-3.01Q1032.43-2.41 1033.29-2.32L1033.29-2.32L1033.29-2.32Q1032.86-0.86 1031.29 0L1031.29 0L1031.29 0Q1029.72 0.86 1027.96 0.86L1027.96 0.86L1027.96 0.86Q1026.19 0.86 1025.01 0.19L1025.01 0.19L1025.01 0.19Q1023.83-0.47 1023.49-1.59L1023.49-1.59L1023.49-1.59Q1022.80-0.52 1021.34 0.17L1021.34 0.17L1021.34 0.17Q1019.87 0.86 1017.92 0.86L1017.92 0.86L1017.92 0.86Q1015.96 0.86 1014.37 0.34L1014.37 0.34L1014.37 0.34Q1012.78-0.17 1011.77-1.29ZM1020.84-18.75L1020.84-18.75L1020.84-18.75Q1020.35-17.97 1019.92-16.66L1019.92-16.66L1019.92-16.66Q1019.49-15.35 1018.78-11.85L1018.78-11.85L1018.78-11.85Q1018.07-8.34 1018.07-5.85L1018.07-5.85L1018.07-5.85Q1018.07-3.35 1018.45-2.62L1018.45-2.62L1018.45-2.62Q1018.84-1.89 1019.53-1.89L1019.53-1.89L1019.53-1.89Q1020.91-1.89 1021.92-3.20L1021.92-3.20L1021.92-3.20Q1022.93-4.52 1023.31-6.84L1023.31-6.84L1025.59-19.44L1025.59-19.44Q1024.69-20.21 1023.64-20.21L1023.64-20.21L1023.64-20.21Q1022.58-20.21 1021.96-19.87L1021.96-19.87L1021.96-19.87Q1021.34-19.52 1020.84-18.75ZM1050.58-4.86L1050.58-4.86L1050.58-4.86Q1048.34-2.54 1044.25-2.54L1044.25-2.54L1044.25-2.54Q1039.14-2.54 1038.06-6.28L1038.06-6.28L1038.06-6.28Q1037.72-7.40 1037.72-8.64L1037.72-8.64L1037.72-8.64Q1037.72-9.89 1037.98-11.18L1037.98-11.18L1040.00-21.93L1048.73-22.79L1046.36-10.28L1046.36-10.28Q1046.28-9.72 1046.15-9.12L1046.15-9.12L1046.15-9.12Q1046.02-8.51 1046.02-7.89L1046.02-7.89L1046.02-7.89Q1046.02-7.27 1046.23-6.86L1046.23-6.86L1046.23-6.86Q1046.45-6.45 1046.75-6.19L1046.75-6.19L1046.75-6.19Q1047.26-5.85 1048.19-5.85L1048.19-5.85L1048.19-5.85Q1049.11-5.85 1049.91-6.97L1049.91-6.97L1049.91-6.97Q1050.70-8.08 1051.09-10.02L1051.09-10.02L1053.46-21.93L1061.93-22.79L1058.70-5.89L1058.70-5.89Q1057.11 2.37 1053.84 5.63L1053.84 5.63L1053.84 5.63Q1052.17 7.31 1050.00 7.98L1050.00 7.98L1050.00 7.98Q1047.82 8.64 1045.03 8.64L1045.03 8.64L1045.03 8.64Q1040.51 8.64 1037.93 7.22L1037.93 7.22L1037.93 7.22Q1035.35 5.81 1035.35 3.44L1035.35 3.44L1035.35 3.44Q1035.35 1.68 1036.69 0.67L1036.69 0.67L1036.69 0.67Q1038.02-0.34 1040.08-0.34L1040.08-0.34L1040.08-0.34Q1041.89-0.34 1043.27 0.43L1043.27 0.43L1043.27 0.43Q1044.08 0.90 1044.47 1.51L1044.47 1.51L1044.47 1.51Q1043.48 2.37 1043.48 3.78L1043.48 3.78L1043.48 3.78Q1043.48 5.68 1045.20 5.68L1045.20 5.68L1045.20 5.68Q1048.04 5.68 1049.67-0.86L1049.67-0.86L1049.67-0.86Q1050.15-2.80 1050.58-4.86ZM1077.15-4.86L1077.15-4.86L1077.15-4.86Q1074.91-2.54 1070.83-2.54L1070.83-2.54L1070.83-2.54Q1065.71-2.54 1064.64-6.28L1064.64-6.28L1064.64-6.28Q1064.29-7.40 1064.29-8.64L1064.29-8.64L1064.29-8.64Q1064.29-9.89 1064.55-11.18L1064.55-11.18L1066.57-21.93L1075.30-22.79L1072.94-10.28L1072.94-10.28Q1072.85-9.72 1072.72-9.12L1072.72-9.12L1072.72-9.12Q1072.59-8.51 1072.59-7.89L1072.59-7.89L1072.59-7.89Q1072.59-7.27 1072.81-6.86L1072.81-6.86L1072.81-6.86Q1073.02-6.45 1073.32-6.19L1073.32-6.19L1073.32-6.19Q1073.84-5.85 1074.76-5.85L1074.76-5.85L1074.76-5.85Q1075.69-5.85 1076.48-6.97L1076.48-6.97L1076.48-6.97Q1077.28-8.08 1077.67-10.02L1077.67-10.02L1080.03-21.93L1088.50-22.79L1085.28-5.89L1085.28-5.89Q1083.69 2.37 1080.42 5.63L1080.42 5.63L1080.42 5.63Q1078.74 7.31 1076.57 7.98L1076.57 7.98L1076.57 7.98Q1074.40 8.64 1071.60 8.64L1071.60 8.64L1071.60 8.64Q1067.09 8.64 1064.51 7.22L1064.51 7.22L1064.51 7.22Q1061.93 5.81 1061.93 3.44L1061.93 3.44L1061.93 3.44Q1061.93 1.68 1063.26 0.67L1063.26 0.67L1063.26 0.67Q1064.59-0.34 1066.66-0.34L1066.66-0.34L1066.66-0.34Q1068.46-0.34 1069.84 0.43L1069.84 0.43L1069.84 0.43Q1070.66 0.90 1071.04 1.51L1071.04 1.51L1071.04 1.51Q1070.05 2.37 1070.05 3.78L1070.05 3.78L1070.05 3.78Q1070.05 5.68 1071.77 5.68L1071.77 5.68L1071.77 5.68Q1074.61 5.68 1076.25-0.86L1076.25-0.86L1076.25-0.86Q1076.72-2.80 1077.15-4.86ZM1103.72-4.86L1103.72-4.86L1103.72-4.86Q1101.49-2.54 1097.40-2.54L1097.40-2.54L1097.40-2.54Q1092.29-2.54 1091.21-6.28L1091.21-6.28L1091.21-6.28Q1090.87-7.40 1090.87-8.64L1090.87-8.64L1090.87-8.64Q1090.87-9.89 1091.13-11.18L1091.13-11.18L1093.15-21.93L1101.88-22.79L1099.51-10.28L1099.51-10.28Q1099.42-9.72 1099.30-9.12L1099.30-9.12L1099.30-9.12Q1099.17-8.51 1099.17-7.89L1099.17-7.89L1099.17-7.89Q1099.17-7.27 1099.38-6.86L1099.38-6.86L1099.38-6.86Q1099.60-6.45 1099.90-6.19L1099.90-6.19L1099.90-6.19Q1100.41-5.85 1101.34-5.85L1101.34-5.85L1101.34-5.85Q1102.26-5.85 1103.06-6.97L1103.06-6.97L1103.06-6.97Q1103.85-8.08 1104.24-10.02L1104.24-10.02L1106.61-21.93L1115.08-22.79L1111.85-5.89L1111.85-5.89Q1110.26 2.37 1106.99 5.63L1106.99 5.63L1106.99 5.63Q1105.32 7.31 1103.14 7.98L1103.14 7.98L1103.14 7.98Q1100.97 8.64 1098.18 8.64L1098.18 8.64L1098.18 8.64Q1093.66 8.64 1091.08 7.22L1091.08 7.22L1091.08 7.22Q1088.50 5.81 1088.50 3.44L1088.50 3.44L1088.50 3.44Q1088.50 1.68 1089.84 0.67L1089.84 0.67L1089.84 0.67Q1091.17-0.34 1093.23-0.34L1093.23-0.34L1093.23-0.34Q1095.04-0.34 1096.41 0.43L1096.41 0.43L1096.41 0.43Q1097.23 0.90 1097.62 1.51L1097.62 1.51L1097.62 1.51Q1096.63 2.37 1096.63 3.78L1096.63 3.78L1096.63 3.78Q1096.63 5.68 1098.35 5.68L1098.35 5.68L1098.35 5.68Q1101.19 5.68 1102.82-0.86L1102.82-0.86L1102.82-0.86Q1103.29-2.80 1103.72-4.86ZM1130.30-4.86L1130.30-4.86L1130.30-4.86Q1128.06-2.54 1123.98-2.54L1123.98-2.54L1123.98-2.54Q1118.86-2.54 1117.79-6.28L1117.79-6.28L1117.79-6.28Q1117.44-7.40 1117.44-8.64L1117.44-8.64L1117.44-8.64Q1117.44-9.89 1117.70-11.18L1117.70-11.18L1119.72-21.93L1128.45-22.79L1126.08-10.28L1126.08-10.28Q1126.00-9.72 1125.87-9.12L1125.87-9.12L1125.87-9.12Q1125.74-8.51 1125.74-7.89L1125.74-7.89L1125.74-7.89Q1125.74-7.27 1125.95-6.86L1125.95-6.86L1125.95-6.86Q1126.17-6.45 1126.47-6.19L1126.47-6.19L1126.47-6.19Q1126.99-5.85 1127.91-5.85L1127.91-5.85L1127.91-5.85Q1128.84-5.85 1129.63-6.97L1129.63-6.97L1129.63-6.97Q1130.43-8.08 1130.81-10.02L1130.81-10.02L1133.18-21.93L1141.65-22.79L1138.42-5.89L1138.42-5.89Q1136.83 2.37 1133.57 5.63L1133.57 5.63L1133.57 5.63Q1131.89 7.31 1129.72 7.98L1129.72 7.98L1129.72 7.98Q1127.55 8.64 1124.75 8.64L1124.75 8.64L1124.75 8.64Q1120.24 8.64 1117.66 7.22L1117.66 7.22L1117.66 7.22Q1115.08 5.81 1115.08 3.44L1115.08 3.44L1115.08 3.44Q1115.08 1.68 1116.41 0.67L1116.41 0.67L1116.41 0.67Q1117.74-0.34 1119.81-0.34L1119.81-0.34L1119.81-0.34Q1121.61-0.34 1122.99 0.43L1122.99 0.43L1122.99 0.43Q1123.81 0.90 1124.19 1.51L1124.19 1.51L1124.19 1.51Q1123.20 2.37 1123.20 3.78L1123.20 3.78L1123.20 3.78Q1123.20 5.68 1124.92 5.68L1124.92 5.68L1124.92 5.68Q1127.76 5.68 1129.39-0.86L1129.39-0.86L1129.39-0.86Q1129.87-2.80 1130.30-4.86ZM1150.77-2.54L1150.77-2.54L1150.77-2.54Q1150.77-4.17 1152.03-5.07L1152.03-5.07L1152.03-5.07Q1153.30-5.98 1155.11-5.98L1155.11-5.98L1155.11-5.98Q1156.91-5.98 1158.01-5.07L1158.01-5.07L1158.01-5.07Q1159.11-4.17 1159.11-2.54L1159.11-2.54L1159.11-2.54Q1159.11-0.90 1157.88-0.02L1157.88-0.02L1157.88-0.02Q1156.66 0.86 1154.85 0.86L1154.85 0.86L1154.85 0.86Q1153.05 0.86 1151.91-0.02L1151.91-0.02L1151.91-0.02Q1150.77-0.90 1150.77-2.54ZM1161.82-2.54L1161.82-2.54L1161.82-2.54Q1161.82-4.17 1163.09-5.07L1163.09-5.07L1163.09-5.07Q1164.35-5.98 1166.16-5.98L1166.16-5.98L1166.16-5.98Q1167.97-5.98 1169.06-5.07L1169.06-5.07L1169.06-5.07Q1170.16-4.17 1170.16-2.54L1170.16-2.54L1170.16-2.54Q1170.16-0.90 1168.93-0.02L1168.93-0.02L1168.93-0.02Q1167.71 0.86 1165.90 0.86L1165.90 0.86L1165.90 0.86Q1164.10 0.86 1162.96-0.02L1162.96-0.02L1162.96-0.02Q1161.82-0.90 1161.82-2.54ZM1172.87-2.54L1172.87-2.54L1172.87-2.54Q1172.87-4.17 1174.14-5.07L1174.14-5.07L1174.14-5.07Q1175.40-5.98 1177.21-5.98L1177.21-5.98L1177.21-5.98Q1179.02-5.98 1180.11-5.07L1180.11-5.07L1180.11-5.07Q1181.21-4.17 1181.21-2.54L1181.21-2.54L1181.21-2.54Q1181.21-0.90 1179.98-0.02L1179.98-0.02L1179.98-0.02Q1178.76 0.86 1176.95 0.86L1176.95 0.86L1176.95 0.86Q1175.15 0.86 1174.01-0.02L1174.01-0.02L1174.01-0.02Q1172.87-0.90 1172.87-2.54Z" fill="url(#editing-shiny-gradient)"></path></g></g><g filter="url(#editing-shiny2)"><g transform="translate(-341.00018668174744, 95.0150032043457)"><path d="M19.61 0.86L19.61 0.86L19.61 0.86Q14.10 0.86 13.59-6.97L13.59-6.97L6.19-6.97L6.19-6.97Q5.33-4.99 4.73-3.27L4.73-3.27L3.61 0L-2.41 0L11.14-28.38L20.38-28.38L22.19-7.48L22.19-7.48Q22.62-2.97 24.34-1.63L24.34-1.63L24.34-1.63Q23.09 0.86 19.61 0.86ZM9.89-15.57L7.53-10.11L13.46-10.11L12.94-21.16L12.94-22.32L9.89-15.57ZM45.02 0.86L45.02 0.86L45.02 0.86Q39.82 0.86 39.82-3.18L39.82-3.18L39.82-3.18Q39.86-4.30 40.21-6.19L40.21-6.19L40.98-10.15L40.98-10.15Q42.14-15.74 42.14-16.99L42.14-16.99L42.14-16.99Q42.14-19.48 40.68-19.48L40.68-19.48L40.68-19.48Q38.23-19.48 36.94-13.07L36.94-13.07L34.40 0L25.76 0.86L30.23-21.97L37.28-22.79L36.59-18.58L36.59-18.58Q38.61-22.79 44.81-22.79L44.81-22.79L44.81-22.79Q47.82-22.79 49.08-21.52L49.08-21.52L49.08-21.52Q50.35-20.25 50.35-17.42L50.35-17.42L50.35-17.42Q50.35-14.75 48.98-8.51L48.98-8.51L48.98-8.51Q48.33-5.72 48.33-4.67L48.33-4.67L48.33-4.67Q48.33-3.61 48.91-3.01L48.91-3.01L48.91-3.01Q49.49-2.41 50.35-2.32L50.35-2.32L50.35-2.32Q49.92-0.86 48.44 0L48.44 0L48.44 0Q46.96 0.86 45.02 0.86ZM75.42-4.77L75.42-4.77L75.42-4.77Q75.42-2.88 77.36-2.32L77.36-2.32L77.36-2.32Q76.88-0.73 75.04 0.13L75.04 0.13L75.04 0.13Q73.49 0.86 71.79 0.86L71.79 0.86L71.79 0.86Q70.09 0.86 69.21 0.41L69.21 0.41L69.21 0.41Q68.33-0.04 67.85-0.77L67.85-0.77L67.85-0.77Q67.08-1.89 67.08-4.00L67.08-4.00L67.08-4.00Q67.08-5.25 67.77-8.69L67.77-8.69L68.37-11.95L68.37-11.95Q69.10-15.70 69.10-17.07L69.10-17.07L69.10-17.07Q69.10-19.48 67.77-19.48L67.77-19.48L67.77-19.48Q66.09-19.48 65.02-17.03L65.02-17.03L65.02-17.03Q64.59-16.08 64.29-14.66L64.29-14.66L61.36 0L52.72 0.86L58.78-30.10L67.42-30.96L67.08-29.24L67.08-29.24Q65.88-22.62 64.84-20.38L64.84-20.38L64.84-20.38Q67.25-22.79 71.68-22.79L71.68-22.79L71.68-22.79Q76.37-22.79 77.23-19.69L77.23-19.69L77.23-19.69Q77.53-18.71 77.53-17.85L77.53-17.85L77.53-17.85Q77.53-16.99 77.46-16.32L77.46-16.32L77.46-16.32Q77.40-15.65 77.19-14.45L77.19-14.45L76.63-11.35L75.64-6.49L75.64-6.49Q75.42-5.50 75.42-4.77ZM117.61-17.85L117.61-17.85L117.61-17.85Q117.61 0.47 97.74 0.47L97.74 0.47L97.74 0.47Q94.56 0.47 89.31-0.30L89.31-0.30L94.13-25.71L94.13-25.71Q94.47-27.43 94.69-28.42L94.69-28.42L94.69-28.42Q101.22-28.90 104.12-28.90L104.12-28.90L104.12-28.90Q107.03-28.90 109.69-28.29L109.69-28.29L109.69-28.29Q112.36-27.69 114.12-26.36L114.12-26.36L114.12-26.36Q117.61-23.74 117.61-17.85ZM108.75-19.44L108.75-19.44L108.75-19.44Q108.75-25.84 104.15-25.84L104.15-25.84L103.72-25.84L103.72-25.84Q103.50-25.84 103.29-25.80L103.29-25.80L98.86-2.71L98.86-2.71Q99.03-2.62 99.20-2.62L99.20-2.62L99.55-2.62L99.55-2.62Q101.14-2.62 102.79-3.61L102.79-3.61L102.79-3.61Q104.45-4.60 105.74-6.62L105.74-6.62L105.74-6.62Q108.75-11.31 108.75-19.44ZM133.60-1.81L133.60-1.81L133.60-1.81Q131.54 0.86 126.42 0.86L126.42 0.86L126.42 0.86Q123.75 0.86 121.82-0.75L121.82-0.75L121.82-0.75Q119.88-2.37 119.88-4.69L119.88-4.69L119.88-4.69Q119.88-5.98 120.01-6.62L120.01-6.62L122.89-21.93L131.62-22.79L128.48-6.19L128.48-6.19Q128.31-5.25 128.31-4.69L128.31-4.69L128.31-4.69Q128.31-2.19 129.82-2.19L129.82-2.19L129.82-2.19Q131.49-2.19 132.70-4.47L132.70-4.47L132.70-4.47Q133.09-5.20 133.26-6.15L133.26-6.15L136.31-21.93L144.78-22.79L141.60-6.02L141.60-6.02Q141.47-5.38 141.47-4.69L141.47-4.69L141.47-4.69Q141.47-4.00 141.86-3.25L141.86-3.25L141.86-3.25Q142.24-2.49 143.49-2.32L143.49-2.32L143.49-2.32Q143.23-1.29 142.33-0.60L142.33-0.60L142.33-0.60Q140.44 0.86 138.40 0.86L138.40 0.86L138.40 0.86Q136.35 0.86 135.15 0.13L135.15 0.13L135.15 0.13Q133.95-0.60 133.60-1.81ZM165.29 0.86L165.29 0.86L165.29 0.86Q160.09 0.86 160.09-3.18L160.09-3.18L160.09-3.18Q160.13-4.30 160.48-6.19L160.48-6.19L161.25-10.15L161.25-10.15Q162.41-15.74 162.41-16.99L162.41-16.99L162.41-16.99Q162.41-19.48 160.95-19.48L160.95-19.48L160.95-19.48Q158.50-19.48 157.21-13.07L157.21-13.07L154.67 0L146.03 0.86L150.50-21.97L157.55-22.79L156.86-18.58L156.86-18.58Q158.89-22.79 165.08-22.79L165.08-22.79L165.08-22.79Q168.09-22.79 169.36-21.52L169.36-21.52L169.36-21.52Q170.62-20.25 170.62-17.42L170.62-17.42L170.62-17.42Q170.62-14.75 169.25-8.51L169.25-8.51L169.25-8.51Q168.60-5.72 168.60-4.67L168.60-4.67L168.60-4.67Q168.60-3.61 169.18-3.01L169.18-3.01L169.18-3.01Q169.76-2.41 170.62-2.32L170.62-2.32L170.62-2.32Q170.19-0.86 168.71 0L168.71 0L168.71 0Q167.23 0.86 165.29 0.86ZM177.12-17.97L177.12-17.97L177.12-17.97Q178.58-20.04 180.79-21.41L180.79-21.41L180.79-21.41Q183.01-22.79 185.72-22.79L185.72-22.79L185.72-22.79Q188.43-22.79 189.72-21.93L189.72-21.93L198.14-22.79L195.22-6.28L195.22-6.28Q193.72 2.15 190.53 5.46L190.53 5.46L190.53 5.46Q187.48 8.60 181.55 8.60L181.55 8.60L181.55 8.60Q177.03 8.60 174.45 7.18L174.45 7.18L174.45 7.18Q171.87 5.76 171.87 3.40L171.87 3.40L171.87 3.40Q171.87 1.63 173.20 0.62L173.20 0.62L173.20 0.62Q174.54-0.39 176.60-0.39L176.60-0.39L176.60-0.39Q178.41-0.39 179.78 0.43L179.78 0.43L179.78 0.43Q180.60 0.86 180.99 1.46L180.99 1.46L180.99 1.46Q180.00 2.32 180.00 3.74L180.00 3.74L180.00 3.74Q180.00 5.59 181.72 5.59L181.72 5.59L181.72 5.59Q184.60 5.59 186.23-1.20L186.23-1.20L186.23-1.20Q186.71-3.05 187.09-4.90L187.09-4.90L187.09-4.90Q185.16-2.54 180.77-2.54L180.77-2.54L180.77-2.54Q177.72-2.54 175.96-4.00L175.96-4.00L175.96-4.00Q174.19-5.46 174.19-8.90L174.19-8.90L174.19-8.90Q174.19-11.05 174.92-13.48L174.92-13.48L174.92-13.48Q175.66-15.91 177.12-17.97ZM182.71-8.77L182.71-8.77L182.71-8.77Q182.71-5.85 184.21-5.85L184.21-5.85L184.21-5.85Q185.24-5.85 186.23-6.97L186.23-6.97L186.23-6.97Q187.01-7.87 187.31-9.20L187.31-9.20L189.50-20.25L189.50-20.25Q189.29-20.30 189.07-20.38L189.07-20.38L189.07-20.38Q188.64-20.55 188.08-20.55L188.08-20.55L188.08-20.55Q185.46-20.55 183.91-16.25L183.91-16.25L183.91-16.25Q182.71-12.90 182.71-8.77ZM236.59-17.85L236.59-17.85L236.59-17.85Q236.59 0.47 216.72 0.47L216.72 0.47L216.72 0.47Q213.54 0.47 208.29-0.30L208.29-0.30L213.11-25.71L213.11-25.71Q213.45-27.43 213.67-28.42L213.67-28.42L213.67-28.42Q220.20-28.90 223.11-28.90L223.11-28.90L223.11-28.90Q226.01-28.90 228.67-28.29L228.67-28.29L228.67-28.29Q231.34-27.69 233.10-26.36L233.10-26.36L233.10-26.36Q236.59-23.74 236.59-17.85ZM227.73-19.44L227.73-19.44L227.73-19.44Q227.73-25.84 223.13-25.84L223.13-25.84L222.70-25.84L222.70-25.84Q222.48-25.84 222.27-25.80L222.27-25.80L217.84-2.71L217.84-2.71Q218.01-2.62 218.18-2.62L218.18-2.62L218.53-2.62L218.53-2.62Q220.12-2.62 221.77-3.61L221.77-3.61L221.77-3.61Q223.43-4.60 224.72-6.62L224.72-6.62L224.72-6.62Q227.73-11.31 227.73-19.44ZM240.65-1.29L240.65-1.29L240.65-1.29Q239.64-2.41 239.19-4.17L239.19-4.17L239.19-4.17Q238.74-5.93 238.74-8.82L238.74-8.82L238.74-8.82Q238.74-11.70 239.73-14.32L239.73-14.32L239.73-14.32Q240.71-16.94 242.52-18.83L242.52-18.83L242.52-18.83Q246.22-22.79 252.32-22.79L252.32-22.79L252.32-22.79Q254.52-22.79 256.11-22.06L256.11-22.06L263.46-22.79L260.28-6.02L260.28-6.02Q260.15-5.50 260.15-4.56L260.15-4.56L260.15-4.56Q260.15-3.61 260.73-3.01L260.73-3.01L260.73-3.01Q261.31-2.41 262.17-2.32L262.17-2.32L262.17-2.32Q261.74-0.86 260.17 0L260.17 0L260.17 0Q258.60 0.86 256.84 0.86L256.84 0.86L256.84 0.86Q255.08 0.86 253.89 0.19L253.89 0.19L253.89 0.19Q252.71-0.47 252.37-1.59L252.37-1.59L252.37-1.59Q251.68-0.52 250.22 0.17L250.22 0.17L250.22 0.17Q248.76 0.86 246.80 0.86L246.80 0.86L246.80 0.86Q244.84 0.86 243.25 0.34L243.25 0.34L243.25 0.34Q241.66-0.17 240.65-1.29ZM249.72-18.75L249.72-18.75L249.72-18.75Q249.23-17.97 248.80-16.66L248.80-16.66L248.80-16.66Q248.37-15.35 247.66-11.85L247.66-11.85L247.66-11.85Q246.95-8.34 246.95-5.85L246.95-5.85L246.95-5.85Q246.95-3.35 247.34-2.62L247.34-2.62L247.34-2.62Q247.72-1.89 248.41-1.89L248.41-1.89L248.41-1.89Q249.79-1.89 250.80-3.20L250.80-3.20L250.80-3.20Q251.81-4.52 252.20-6.84L252.20-6.84L254.47-19.44L254.47-19.44Q253.57-20.21 252.52-20.21L252.52-20.21L252.52-20.21Q251.46-20.21 250.84-19.87L250.84-19.87L250.84-19.87Q250.22-19.52 249.72-18.75ZM279.46-4.86L279.46-4.86L279.46-4.86Q277.22-2.54 273.14-2.54L273.14-2.54L273.14-2.54Q268.02-2.54 266.94-6.28L266.94-6.28L266.94-6.28Q266.60-7.40 266.60-8.64L266.60-8.64L266.60-8.64Q266.60-9.89 266.86-11.18L266.86-11.18L268.88-21.93L277.61-22.79L275.24-10.28L275.24-10.28Q275.16-9.72 275.03-9.12L275.03-9.12L275.03-9.12Q274.90-8.51 274.90-7.89L274.90-7.89L274.90-7.89Q274.90-7.27 275.11-6.86L275.11-6.86L275.11-6.86Q275.33-6.45 275.63-6.19L275.63-6.19L275.63-6.19Q276.15-5.85 277.07-5.85L277.07-5.85L277.07-5.85Q278.00-5.85 278.79-6.97L278.79-6.97L278.79-6.97Q279.59-8.08 279.97-10.02L279.97-10.02L282.34-21.93L290.81-22.79L287.58-5.89L287.58-5.89Q285.99 2.37 282.73 5.63L282.73 5.63L282.73 5.63Q281.05 7.31 278.88 7.98L278.88 7.98L278.88 7.98Q276.71 8.64 273.91 8.64L273.91 8.64L273.91 8.64Q269.40 8.64 266.81 7.22L266.81 7.22L266.81 7.22Q264.24 5.81 264.24 3.44L264.24 3.44L264.24 3.44Q264.24 1.68 265.57 0.67L265.57 0.67L265.57 0.67Q266.90-0.34 268.97-0.34L268.97-0.34L268.97-0.34Q270.77-0.34 272.15 0.43L272.15 0.43L272.15 0.43Q272.96 0.90 273.35 1.51L273.35 1.51L273.35 1.51Q272.36 2.37 272.36 3.78L272.36 3.78L272.36 3.78Q272.36 5.68 274.08 5.68L274.08 5.68L274.08 5.68Q276.92 5.68 278.55-0.86L278.55-0.86L278.55-0.86Q279.03-2.80 279.46-4.86ZM304.66-20.94L304.66-20.94L304.66-20.94Q303.19-22.06 303.19-24.45L303.19-24.45L303.19-24.45Q303.19-26.83 304.76-28.08L304.76-28.08L304.76-28.08Q306.33-29.33 309.04-29.33L309.04-29.33L309.04-29.33Q310.76-29.33 314.85-28.72L314.85-28.72L317.77-28.29L317.77-28.29Q319.23-28.12 320.76-28.12L320.76-28.12L320.76-28.12Q322.29-28.12 323.32-28.77L323.32-28.77L323.32-28.77Q324.87-27.39 324.87-25.41L324.87-25.41L324.87-25.41Q324.87-23.44 323.10-22.02L323.10-22.02L323.10-22.02Q321.30-20.51 318.97-20.51L318.97-20.51L318.97-20.51Q317.86-20.51 316.05-20.81L316.05-20.81L316.05-20.81Q313.94-14.19 313.94-9.59L313.94-9.59L313.94-9.59Q313.94-4.99 316.27-2.58L316.27-2.58L316.27-2.58Q315.19-0.65 313.60 0.11L313.60 0.11L313.60 0.11Q312.01 0.86 309.62 0.86L309.62 0.86L309.62 0.86Q307.24 0.86 305.75-0.45L305.75-0.45L305.75-0.45Q304.27-1.76 304.27-4.47L304.27-4.47L304.27-4.47Q304.27-7.61 305.99-12.77L305.99-12.77L305.99-12.77Q307.71-17.89 310.29-21.80L310.29-21.80L310.29-21.80Q309.04-21.93 307.75-21.93L307.75-21.93L307.75-21.93Q305.09-21.93 304.66-20.94ZM337.03-1.81L337.03-1.81L337.03-1.81Q334.97 0.86 329.85 0.86L329.85 0.86L329.85 0.86Q327.19 0.86 325.25-0.75L325.25-0.75L325.25-0.75Q323.32-2.37 323.32-4.69L323.32-4.69L323.32-4.69Q323.32-5.98 323.45-6.62L323.45-6.62L326.33-21.93L335.06-22.79L331.92-6.19L331.92-6.19Q331.75-5.25 331.75-4.69L331.75-4.69L331.75-4.69Q331.75-2.19 333.25-2.19L333.25-2.19L333.25-2.19Q334.93-2.19 336.13-4.47L336.13-4.47L336.13-4.47Q336.52-5.20 336.69-6.15L336.69-6.15L339.74-21.93L348.21-22.79L345.03-6.02L345.03-6.02Q344.90-5.38 344.90-4.69L344.90-4.69L344.90-4.69Q344.90-4.00 345.29-3.25L345.29-3.25L345.29-3.25Q345.68-2.49 346.92-2.32L346.92-2.32L346.92-2.32Q346.67-1.29 345.76-0.60L345.76-0.60L345.76-0.60Q343.87 0.86 341.83 0.86L341.83 0.86L341.83 0.86Q339.79 0.86 338.58 0.13L338.58 0.13L338.58 0.13Q337.38-0.60 337.03-1.81ZM381.84-8.90L381.84-8.90L381.84-8.90Q382.96-8.08 382.96-6.34L382.96-6.34L382.96-6.34Q382.96-4.60 382.21-3.38L382.21-3.38L382.21-3.38Q381.45-2.15 379.99-1.20L379.99-1.20L379.99-1.20Q376.85 0.82 371.37 0.82L371.37 0.82L371.37 0.82Q365.89 0.82 362.90-2.04L362.90-2.04L362.90-2.04Q359.91-4.90 359.91-9.98L359.91-9.98L359.91-9.98Q359.91-17.16 363.65-22.62L363.65-22.62L363.65-22.62Q366.49-26.66 371.56-28.38L371.56-28.38L371.56-28.38Q374.19-29.24 376.77-29.24L376.77-29.24L376.77-29.24Q379.35-29.24 380.94-28.90L380.94-28.90L380.94-28.90Q382.53-28.55 383.73-27.86L383.73-27.86L383.73-27.86Q386.36-26.36 386.36-23.95L386.36-23.95L386.36-23.95Q386.36-21.76 384.29-20.12L384.29-20.12L384.29-20.12Q382.40-18.66 380.85-18.66L380.85-18.66L380.85-18.66Q379.30-18.66 378.66-18.88L378.66-18.88L378.66-18.88Q378.83-20.43 378.83-21.44L378.83-21.44L378.83-21.44Q378.83-22.45 378.79-23.18L378.79-23.18L378.79-23.18Q378.74-23.91 378.53-24.60L378.53-24.60L378.53-24.60Q378.10-26.19 376.79-26.19L376.79-26.19L376.79-26.19Q375.48-26.19 374.16-24.96L374.16-24.96L374.16-24.96Q372.85-23.74 371.74-21.67L371.74-21.67L371.74-21.67Q369.20-16.99 369.20-11.44L369.20-11.44L369.20-11.44Q369.20-8.77 370.70-7.25L370.70-7.25L370.70-7.25Q372.21-5.72 375.43-5.72L375.43-5.72L375.43-5.72Q377.84-5.72 380.12-7.31L380.12-7.31L380.12-7.31Q381.11-8.00 381.84-8.90ZM408.16-4.77L408.16-4.77L408.16-4.77Q408.16-2.88 410.09-2.32L410.09-2.32L410.09-2.32Q409.62-0.73 407.77 0.13L407.77 0.13L407.77 0.13Q406.22 0.86 404.52 0.86L404.52 0.86L404.52 0.86Q402.82 0.86 401.94 0.41L401.94 0.41L401.94 0.41Q401.06-0.04 400.59-0.77L400.59-0.77L400.59-0.77Q399.81-1.89 399.81-4.00L399.81-4.00L399.81-4.00Q399.81-5.25 400.50-8.69L400.50-8.69L401.10-11.95L401.10-11.95Q401.84-15.70 401.84-17.07L401.84-17.07L401.84-17.07Q401.84-19.48 400.50-19.48L400.50-19.48L400.50-19.48Q398.83-19.48 397.75-17.03L397.75-17.03L397.75-17.03Q397.32-16.08 397.02-14.66L397.02-14.66L394.10 0L385.45 0.86L391.52-30.10L400.16-30.96L399.81-29.24L399.81-29.24Q398.61-22.62 397.58-20.38L397.58-20.38L397.58-20.38Q399.99-22.79 404.42-22.79L404.42-22.79L404.42-22.79Q409.10-22.79 409.96-19.69L409.96-19.69L409.96-19.69Q410.26-18.71 410.26-17.85L410.26-17.85L410.26-17.85Q410.26-16.99 410.20-16.32L410.20-16.32L410.20-16.32Q410.13-15.65 409.92-14.45L409.92-14.45L409.36-11.35L408.37-6.49L408.37-6.49Q408.16-5.50 408.16-4.77ZM423.89-2.37L423.89-2.37L423.89-2.37Q422.56 0.86 418.30 0.86L418.30 0.86L418.30 0.86Q416.11 0.86 414.74-0.65L414.74-0.65L414.74-0.65Q413.57-1.98 413.57-3.31L413.57-3.31L413.57-3.31Q413.57-6.79 415.17-13.59L415.17-13.59L416.76-21.93L425.49-22.79L422.86-9.20L422.86-9.20Q422.13-6.02 422.13-4.90L422.13-4.90L422.13-4.90Q422.13-2.45 423.89-2.37ZM417.53-27.91L417.53-27.91L417.53-27.91Q417.53-29.58 418.93-30.49L418.93-30.49L418.93-30.49Q420.33-31.39 422.35-31.39L422.35-31.39L422.35-31.39Q424.37-31.39 425.59-30.49L425.59-30.49L425.59-30.49Q426.82-29.58 426.82-27.91L426.82-27.91L426.82-27.91Q426.82-26.23 425.46-25.37L425.46-25.37L425.46-25.37Q424.11-24.51 422.09-24.51L422.09-24.51L422.09-24.51Q420.07-24.51 418.80-25.37L418.80-25.37L418.80-25.37Q417.53-26.23 417.53-27.91ZM444.96-7.27L444.96-7.27L444.96-7.27Q446.04-6.54 446.04-4.92L446.04-4.92L446.04-4.92Q446.04-3.31 445.22-2.28L445.22-2.28L445.22-2.28Q444.41-1.25 443.07-0.56L443.07-0.56L443.07-0.56Q440.32 0.86 437.35 0.86L437.35 0.86L437.35 0.86Q434.39 0.86 432.64 0.22L432.64 0.22L432.64 0.22Q430.90-0.43 429.74-1.63L429.74-1.63L429.74-1.63Q427.46-3.91 427.46-8.08L427.46-8.08L427.46-8.08Q427.46-14.58 430.99-18.53L430.99-18.53L430.99-18.53Q434.77-22.79 441.35-22.79L441.35-22.79L441.35-22.79Q445.44-22.79 447.46-21.07L447.46-21.07L447.46-21.07Q448.96-19.78 448.96-17.67L448.96-17.67L448.96-17.67Q448.96-10.11 435.89-10.11L435.89-10.11L435.89-10.11Q435.72-8.99 435.72-8.04L435.72-8.04L435.72-8.04Q435.72-6.06 436.60-5.31L436.60-5.31L436.60-5.31Q437.48-4.56 439.12-4.56L439.12-4.56L439.12-4.56Q440.75-4.56 442.49-5.31L442.49-5.31L442.49-5.31Q444.23-6.06 444.96-7.27ZM436.19-11.95L436.19-11.95L436.19-11.95Q439.25-11.95 441.01-13.85L441.01-13.85L441.01-13.85Q442.77-15.65 442.77-18.53L442.77-18.53L442.77-18.53Q442.77-19.52 442.41-20.06L442.41-20.06L442.41-20.06Q442.04-20.60 441.31-20.60L441.31-20.60L441.31-20.60Q440.58-20.60 439.95-20.32L439.95-20.32L439.95-20.32Q439.33-20.04 438.69-19.09L438.69-19.09L438.69-19.09Q437.10-16.94 436.19-11.95ZM464.23-1.81L464.23-1.81L464.23-1.81Q462.16 0.86 457.05 0.86L457.05 0.86L457.05 0.86Q454.38 0.86 452.45-0.75L452.45-0.75L452.45-0.75Q450.51-2.37 450.51-4.69L450.51-4.69L450.51-4.69Q450.51-5.98 450.64-6.62L450.64-6.62L453.52-21.93L462.25-22.79L459.11-6.19L459.11-6.19Q458.94-5.25 458.94-4.69L458.94-4.69L458.94-4.69Q458.94-2.19 460.44-2.19L460.44-2.19L460.44-2.19Q462.12-2.19 463.33-4.47L463.33-4.47L463.33-4.47Q463.71-5.20 463.88-6.15L463.88-6.15L466.94-21.93L475.41-22.79L472.23-6.02L472.23-6.02Q472.10-5.38 472.10-4.69L472.10-4.69L472.10-4.69Q472.10-4.00 472.48-3.25L472.48-3.25L472.48-3.25Q472.87-2.49 474.12-2.32L474.12-2.32L474.12-2.32Q473.86-1.29 472.96-0.60L472.96-0.60L472.96-0.60Q471.07 0.86 469.02 0.86L469.02 0.86L469.02 0.86Q466.98 0.86 465.78 0.13L465.78 0.13L465.78 0.13Q464.57-0.60 464.23-1.81ZM509.03-8.90L509.03-8.90L509.03-8.90Q510.15-8.08 510.15-6.34L510.15-6.34L510.15-6.34Q510.15-4.60 509.40-3.38L509.40-3.38L509.40-3.38Q508.65-2.15 507.19-1.20L507.19-1.20L507.19-1.20Q504.05 0.82 498.56 0.82L498.56 0.82L498.56 0.82Q493.08 0.82 490.09-2.04L490.09-2.04L490.09-2.04Q487.10-4.90 487.10-9.98L487.10-9.98L487.10-9.98Q487.10-17.16 490.85-22.62L490.85-22.62L490.85-22.62Q493.68-26.66 498.76-28.38L498.76-28.38L498.76-28.38Q501.38-29.24 503.96-29.24L503.96-29.24L503.96-29.24Q506.54-29.24 508.13-28.90L508.13-28.90L508.13-28.90Q509.72-28.55 510.93-27.86L510.93-27.86L510.93-27.86Q513.55-26.36 513.55-23.95L513.55-23.95L513.55-23.95Q513.55-21.76 511.49-20.12L511.49-20.12L511.49-20.12Q509.59-18.66 508.05-18.66L508.05-18.66L508.05-18.66Q506.50-18.66 505.85-18.88L505.85-18.88L505.85-18.88Q506.02-20.43 506.02-21.44L506.02-21.44L506.02-21.44Q506.02-22.45 505.98-23.18L505.98-23.18L505.98-23.18Q505.94-23.91 505.72-24.60L505.72-24.60L505.72-24.60Q505.29-26.19 503.98-26.19L503.98-26.19L503.98-26.19Q502.67-26.19 501.36-24.96L501.36-24.96L501.36-24.96Q500.05-23.74 498.93-21.67L498.93-21.67L498.93-21.67Q496.39-16.99 496.39-11.44L496.39-11.44L496.39-11.44Q496.39-8.77 497.90-7.25L497.90-7.25L497.90-7.25Q499.40-5.72 502.63-5.72L502.63-5.72L502.63-5.72Q505.04-5.72 507.31-7.31L507.31-7.31L507.31-7.31Q508.30-8.00 509.03-8.90ZM535.35-4.77L535.35-4.77L535.35-4.77Q535.35-2.88 537.29-2.32L537.29-2.32L537.29-2.32Q536.81-0.73 534.96 0.13L534.96 0.13L534.96 0.13Q533.42 0.86 531.72 0.86L531.72 0.86L531.72 0.86Q530.02 0.86 529.14 0.41L529.14 0.41L529.14 0.41Q528.26-0.04 527.78-0.77L527.78-0.77L527.78-0.77Q527.01-1.89 527.01-4.00L527.01-4.00L527.01-4.00Q527.01-5.25 527.70-8.69L527.70-8.69L528.30-11.95L528.30-11.95Q529.03-15.70 529.03-17.07L529.03-17.07L529.03-17.07Q529.03-19.48 527.70-19.48L527.70-19.48L527.70-19.48Q526.02-19.48 524.94-17.03L524.94-17.03L524.94-17.03Q524.51-16.08 524.21-14.66L524.21-14.66L521.29 0L512.65 0.86L518.71-30.10L527.35-30.96L527.01-29.24L527.01-29.24Q525.80-22.62 524.77-20.38L524.77-20.38L524.77-20.38Q527.18-22.79 531.61-22.79L531.61-22.79L531.61-22.79Q536.30-22.79 537.16-19.69L537.16-19.69L537.16-19.69Q537.46-18.71 537.46-17.85L537.46-17.85L537.46-17.85Q537.46-16.99 537.39-16.32L537.39-16.32L537.39-16.32Q537.33-15.65 537.11-14.45L537.11-14.45L536.55-11.35L535.57-6.49L535.57-6.49Q535.35-5.50 535.35-4.77ZM551.09-2.37L551.09-2.37L551.09-2.37Q549.76 0.86 545.50 0.86L545.50 0.86L545.50 0.86Q543.31 0.86 541.93-0.65L541.93-0.65L541.93-0.65Q540.77-1.98 540.77-3.31L540.77-3.31L540.77-3.31Q540.77-6.79 542.36-13.59L542.36-13.59L543.95-21.93L552.68-22.79L550.06-9.20L550.06-9.20Q549.33-6.02 549.33-4.90L549.33-4.90L549.33-4.90Q549.33-2.45 551.09-2.37ZM544.72-27.91L544.72-27.91L544.72-27.91Q544.72-29.58 546.12-30.49L546.12-30.49L546.12-30.49Q547.52-31.39 549.54-31.39L549.54-31.39L549.54-31.39Q551.56-31.39 552.79-30.49L552.79-30.49L552.79-30.49Q554.01-29.58 554.01-27.91L554.01-27.91L554.01-27.91Q554.01-26.23 552.66-25.37L552.66-25.37L552.66-25.37Q551.30-24.51 549.28-24.51L549.28-24.51L549.28-24.51Q547.26-24.51 545.99-25.37L545.99-25.37L545.99-25.37Q544.72-26.23 544.72-27.91ZM591.51-17.85L591.51-17.85L591.51-17.85Q591.51 0.47 571.64 0.47L571.64 0.47L571.64 0.47Q568.46 0.47 563.21-0.30L563.21-0.30L568.03-25.71L568.03-25.71Q568.37-27.43 568.59-28.42L568.59-28.42L568.59-28.42Q575.13-28.90 578.03-28.90L578.03-28.90L578.03-28.90Q580.93-28.90 583.60-28.29L583.60-28.29L583.60-28.29Q586.26-27.69 588.03-26.36L588.03-26.36L588.03-26.36Q591.51-23.74 591.51-17.85ZM582.65-19.44L582.65-19.44L582.65-19.44Q582.65-25.84 578.05-25.84L578.05-25.84L577.62-25.84L577.62-25.84Q577.40-25.84 577.19-25.80L577.19-25.80L572.76-2.71L572.76-2.71Q572.93-2.62 573.10-2.62L573.10-2.62L573.45-2.62L573.45-2.62Q575.04-2.62 576.69-3.61L576.69-3.61L576.69-3.61Q578.35-4.60 579.64-6.62L579.64-6.62L579.64-6.62Q582.65-11.31 582.65-19.44ZM611.12-7.27L611.12-7.27L611.12-7.27Q612.19-6.54 612.19-4.92L612.19-4.92L612.19-4.92Q612.19-3.31 611.37-2.28L611.37-2.28L611.37-2.28Q610.56-1.25 609.22-0.56L609.22-0.56L609.22-0.56Q606.47 0.86 603.51 0.86L603.51 0.86L603.51 0.86Q600.54 0.86 598.80 0.22L598.80 0.22L598.80 0.22Q597.06-0.43 595.89-1.63L595.89-1.63L595.89-1.63Q593.62-3.91 593.62-8.08L593.62-8.08L593.62-8.08Q593.62-14.58 597.14-18.53L597.14-18.53L597.14-18.53Q600.93-22.79 607.50-22.79L607.50-22.79L607.50-22.79Q611.59-22.79 613.61-21.07L613.61-21.07L613.61-21.07Q615.12-19.78 615.12-17.67L615.12-17.67L615.12-17.67Q615.12-10.11 602.04-10.11L602.04-10.11L602.04-10.11Q601.87-8.99 601.87-8.04L601.87-8.04L601.87-8.04Q601.87-6.06 602.75-5.31L602.75-5.31L602.75-5.31Q603.63-4.56 605.27-4.56L605.27-4.56L605.27-4.56Q606.90-4.56 608.64-5.31L608.64-5.31L608.64-5.31Q610.39-6.06 611.12-7.27ZM602.34-11.95L602.34-11.95L602.34-11.95Q605.40-11.95 607.16-13.85L607.16-13.85L607.16-13.85Q608.92-15.65 608.92-18.53L608.92-18.53L608.92-18.53Q608.92-19.52 608.56-20.06L608.56-20.06L608.56-20.06Q608.19-20.60 607.46-20.60L607.46-20.60L607.46-20.60Q606.73-20.60 606.11-20.32L606.11-20.32L606.11-20.32Q605.48-20.04 604.84-19.09L604.84-19.09L604.84-19.09Q603.25-16.94 602.34-11.95ZM647.88-8.90L647.88-8.90L647.88-8.90Q649.00-8.08 649.00-6.34L649.00-6.34L649.00-6.34Q649.00-4.60 648.25-3.38L648.25-3.38L648.25-3.38Q647.49-2.15 646.03-1.20L646.03-1.20L646.03-1.20Q642.89 0.82 637.41 0.82L637.41 0.82L637.41 0.82Q631.93 0.82 628.94-2.04L628.94-2.04L628.94-2.04Q625.95-4.90 625.95-9.98L625.95-9.98L625.95-9.98Q625.95-17.16 629.69-22.62L629.69-22.62L629.69-22.62Q632.53-26.66 637.60-28.38L637.60-28.38L637.60-28.38Q640.23-29.24 642.81-29.24L642.81-29.24L642.81-29.24Q645.39-29.24 646.98-28.90L646.98-28.90L646.98-28.90Q648.57-28.55 649.77-27.86L649.77-27.86L649.77-27.86Q652.40-26.36 652.40-23.95L652.40-23.95L652.40-23.95Q652.40-21.76 650.33-20.12L650.33-20.12L650.33-20.12Q648.44-18.66 646.89-18.66L646.89-18.66L646.89-18.66Q645.34-18.66 644.70-18.88L644.70-18.88L644.70-18.88Q644.87-20.43 644.87-21.44L644.87-21.44L644.87-21.44Q644.87-22.45 644.83-23.18L644.83-23.18L644.83-23.18Q644.79-23.91 644.57-24.60L644.57-24.60L644.57-24.60Q644.14-26.19 642.83-26.19L642.83-26.19L642.83-26.19Q641.52-26.19 640.21-24.96L640.21-24.96L640.21-24.96Q638.89-23.74 637.78-21.67L637.78-21.67L637.78-21.67Q635.24-16.99 635.24-11.44L635.24-11.44L635.24-11.44Q635.24-8.77 636.74-7.25L636.74-7.25L636.74-7.25Q638.25-5.72 641.47-5.72L641.47-5.72L641.47-5.72Q643.88-5.72 646.16-7.31L646.16-7.31L646.16-7.31Q647.15-8.00 647.88-8.90ZM674.20-4.77L674.20-4.77L674.20-4.77Q674.20-2.88 676.13-2.32L676.13-2.32L676.13-2.32Q675.66-0.73 673.81 0.13L673.81 0.13L673.81 0.13Q672.26 0.86 670.56 0.86L670.56 0.86L670.56 0.86Q668.87 0.86 667.98 0.41L667.98 0.41L667.98 0.41Q667.10-0.04 666.63-0.77L666.63-0.77L666.63-0.77Q665.86-1.89 665.86-4.00L665.86-4.00L665.86-4.00Q665.86-5.25 666.54-8.69L666.54-8.69L667.15-11.95L667.15-11.95Q667.88-15.70 667.88-17.07L667.88-17.07L667.88-17.07Q667.88-19.48 666.54-19.48L666.54-19.48L666.54-19.48Q664.87-19.48 663.79-17.03L663.79-17.03L663.79-17.03Q663.36-16.08 663.06-14.66L663.06-14.66L660.14 0L651.49 0.86L657.56-30.10L666.20-30.96L665.86-29.24L665.86-29.24Q664.65-22.62 663.62-20.38L663.62-20.38L663.62-20.38Q666.03-22.79 670.46-22.79L670.46-22.79L670.46-22.79Q675.14-22.79 676.00-19.69L676.00-19.69L676.00-19.69Q676.30-18.71 676.30-17.85L676.30-17.85L676.30-17.85Q676.30-16.99 676.24-16.32L676.24-16.32L676.24-16.32Q676.18-15.65 675.96-14.45L675.96-14.45L675.40-11.35L674.41-6.49L674.41-6.49Q674.20-5.50 674.20-4.77ZM688.99 0.86L688.99 0.86L688.99 0.86Q679.53 0.86 679.53-8.04L679.53-8.04L679.53-8.04Q679.53-14.36 683.01-18.45L683.01-18.45L683.01-18.45Q686.71-22.79 693.12-22.79L693.12-22.79L693.12-22.79Q697.76-22.79 700.13-20.64L700.13-20.64L700.13-20.64Q702.49-18.49 702.49-13.98L702.49-13.98L702.49-13.98Q702.49-7.10 698.79-3.10L698.79-3.10L698.79-3.10Q695.18 0.86 688.99 0.86ZM690.11-17.85L690.11-17.85L690.11-17.85Q689.59-16.68 689.18-14.94L689.18-14.94L689.18-14.94Q688.77-13.20 688.26-10.45L688.26-10.45L688.26-10.45Q687.74-7.70 687.74-4.30L687.74-4.30L687.74-4.30Q687.74-3.18 688.11-2.45L688.11-2.45L688.11-2.45Q688.47-1.72 689.46-1.72L689.46-1.72L689.46-1.72Q690.45-1.72 691.07-2.19L691.07-2.19L691.07-2.19Q691.70-2.67 692.17-3.78L692.17-3.78L692.17-3.78Q693.03-5.76 693.72-9.44L693.72-9.44L693.72-9.44Q694.41-13.12 694.47-14.71L694.47-14.71L694.47-14.71Q694.54-16.30 694.54-17.48L694.54-17.48L694.54-17.48Q694.54-18.66 694.19-19.44L694.19-19.44L694.19-19.44Q693.85-20.21 692.88-20.21L692.88-20.21L692.88-20.21Q691.91-20.21 691.27-19.61L691.27-19.61L691.27-19.61Q690.62-19.01 690.11-17.85ZM732.25-6.62L732.25-6.62L732.25-6.62Q733.06-5.59 733.06-3.91L733.06-3.91L733.06-3.91Q733.06-1.59 731.34-0.37L731.34-0.37L731.34-0.37Q729.62 0.86 726.92 0.86L726.92 0.86L726.92 0.86Q725.37 0.86 723.00 0.52L723.00 0.52L723.00 0.52Q718.36-0.22 716.94-0.22L716.94-0.22L716.94-0.22Q715.52-0.22 714.96-0.15L714.96-0.15L714.96-0.15Q714.40-0.09 713.50 0L713.50 0L718.79-28.38L737.32-28.38L737.32-28.38Q737.32-25.76 736.05-24.38L736.05-24.38L736.05-24.38Q734.78-23.01 732.29-23.01L732.29-23.01L732.29-23.01Q729.80-23.01 727.26-24.17L727.26-24.17L725.93-16.64L733.58-16.64L733.58-16.64Q733.58-14.36 732.46-13.09L732.46-13.09L732.46-13.09Q731.34-11.83 729.47-11.83L729.47-11.83L729.47-11.83Q727.60-11.83 726.44-12.26L726.44-12.26L726.44-12.26Q725.28-12.69 725.15-12.81L725.15-12.81L723.60-4.69L723.60-4.69Q724.64-4.56 726.57-4.56L726.57-4.56L726.57-4.56Q729.88-4.56 732.25-6.62ZM767.98 0.86L767.98 0.86L767.98 0.86Q762.78 0.86 762.78-3.18L762.78-3.18L762.78-3.18Q762.78-4.95 763.53-8.36L763.53-8.36L763.53-8.36Q764.28-11.78 764.54-13.16L764.54-13.16L764.54-13.16Q765.14-16.30 765.14-17.29L765.14-17.29L765.14-17.29Q765.14-19.48 763.51-19.48L763.51-19.48L763.51-19.48Q762.43-19.48 761.40-18.00L761.40-18.00L761.40-18.00Q760.37-16.51 759.90-13.55L759.90-13.55L757.23 0L748.85 0.86L751.17-10.84L751.17-10.84Q751.55-12.77 751.90-14.96L751.90-14.96L751.90-14.96Q752.24-17.16 752.24-17.50L752.24-17.50L752.24-17.50Q752.24-19.48 750.78-19.48L750.78-19.48L750.78-19.48Q749.79-19.48 748.72-18.02L748.72-18.02L748.72-18.02Q747.64-16.55 747.04-13.55L747.04-13.55L744.42 0L735.95 0.86L740.46-21.93L747.47-22.79L746.74-18.45L746.74-18.45Q747.86-20.77 749.92-21.78L749.92-21.78L749.92-21.78Q751.98-22.79 755.21-22.79L755.21-22.79L755.21-22.79Q757.06-22.79 758.26-21.89L758.26-21.89L758.26-21.89Q759.47-20.98 759.85-19.52L759.85-19.52L759.85-19.52Q760.58-21.03 762.45-21.91L762.45-21.91L762.45-21.91Q764.33-22.79 766.63-22.79L766.63-22.79L766.63-22.79Q768.93-22.79 770.07-22.30L770.07-22.30L770.07-22.30Q771.21-21.80 771.89-20.98L771.89-20.98L771.89-20.98Q773.05-19.48 773.05-16.73L773.05-16.73L773.05-16.73Q773.05-14.02 771.89-8.39L771.89-8.39L771.89-8.39Q771.29-5.63 771.29-4.62L771.29-4.62L771.29-4.62Q771.29-3.61 771.87-3.01L771.87-3.01L771.87-3.01Q772.45-2.41 773.31-2.32L773.31-2.32L773.31-2.32Q772.88-0.86 771.40 0L771.40 0L771.40 0Q769.92 0.86 767.98 0.86ZM786.81-26.79L786.81-26.79L786.81-26.79Q788.84-29.15 792.19-29.15L792.19-29.15L792.19-29.15Q794.86-29.15 796.27-28.12L796.27-28.12L796.27-28.12Q797.69-27.05 798.64-24.42L798.64-24.42L800.45-19.31L806.94-28.34L812.74-28.34L802.21-14.36L804.92-6.71L804.92-6.71Q805.52-4.99 806.57-3.72L806.57-3.72L806.57-3.72Q807.63-2.45 808.57-2.24L808.57-2.24L808.57-2.24Q807.71-0.60 806.23 0.13L806.23 0.13L806.23 0.13Q804.75 0.86 802.57 0.86L802.57 0.86L802.57 0.86Q800.40 0.86 798.88-0.56L798.88-0.56L798.88-0.56Q797.35-1.98 796.19-5.16L796.19-5.16L794.94-8.60L788.45 0L783.16 0L793.05-13.72L789.95-22.36L789.95-22.36Q789.26-24.25 788.58-25.22L788.58-25.22L788.58-25.22Q787.89-26.19 786.81-26.79ZM828.31-7.27L828.31-7.27L828.31-7.27Q829.38-6.54 829.38-4.92L829.38-4.92L829.38-4.92Q829.38-3.31 828.57-2.28L828.57-2.28L828.57-2.28Q827.75-1.25 826.42-0.56L826.42-0.56L826.42-0.56Q823.66 0.86 820.70 0.86L820.70 0.86L820.70 0.86Q817.73 0.86 815.99 0.22L815.99 0.22L815.99 0.22Q814.25-0.43 813.09-1.63L813.09-1.63L813.09-1.63Q810.81-3.91 810.81-8.08L810.81-8.08L810.81-8.08Q810.81-14.58 814.33-18.53L814.33-18.53L814.33-18.53Q818.12-22.79 824.70-22.79L824.70-22.79L824.70-22.79Q828.78-22.79 830.80-21.07L830.80-21.07L830.80-21.07Q832.31-19.78 832.31-17.67L832.31-17.67L832.31-17.67Q832.31-10.11 819.24-10.11L819.24-10.11L819.24-10.11Q819.06-8.99 819.06-8.04L819.06-8.04L819.06-8.04Q819.06-6.06 819.95-5.31L819.95-5.31L819.95-5.31Q820.83-4.56 822.46-4.56L822.46-4.56L822.46-4.56Q824.10-4.56 825.84-5.31L825.84-5.31L825.84-5.31Q827.58-6.06 828.31-7.27ZM819.54-11.95L819.54-11.95L819.54-11.95Q822.59-11.95 824.35-13.85L824.35-13.85L824.35-13.85Q826.12-15.65 826.12-18.53L826.12-18.53L826.12-18.53Q826.12-19.52 825.75-20.06L825.75-20.06L825.75-20.06Q825.38-20.60 824.65-20.60L824.65-20.60L824.65-20.60Q823.92-20.60 823.30-20.32L823.30-20.32L823.30-20.32Q822.68-20.04 822.03-19.09L822.03-19.09L822.03-19.09Q820.44-16.94 819.54-11.95ZM864.73 0.86L864.73 0.86L864.73 0.86Q859.53 0.86 859.53-3.18L859.53-3.18L859.53-3.18Q859.53-4.95 860.28-8.36L860.28-8.36L860.28-8.36Q861.03-11.78 861.29-13.16L861.29-13.16L861.29-13.16Q861.89-16.30 861.89-17.29L861.89-17.29L861.89-17.29Q861.89-19.48 860.26-19.48L860.26-19.48L860.26-19.48Q859.18-19.48 858.15-18.00L858.15-18.00L858.15-18.00Q857.12-16.51 856.65-13.55L856.65-13.55L853.98 0L845.60 0.86L847.92-10.84L847.92-10.84Q848.30-12.77 848.65-14.96L848.65-14.96L848.65-14.96Q848.99-17.16 848.99-17.50L848.99-17.50L848.99-17.50Q848.99-19.48 847.53-19.48L847.53-19.48L847.53-19.48Q846.54-19.48 845.47-18.02L845.47-18.02L845.47-18.02Q844.39-16.55 843.79-13.55L843.79-13.55L841.17 0L832.69 0.86L837.21-21.93L844.22-22.79L843.49-18.45L843.49-18.45Q844.61-20.77 846.67-21.78L846.67-21.78L846.67-21.78Q848.73-22.79 851.96-22.79L851.96-22.79L851.96-22.79Q853.81-22.79 855.01-21.89L855.01-21.89L855.01-21.89Q856.22-20.98 856.60-19.52L856.60-19.52L856.60-19.52Q857.33-21.03 859.20-21.91L859.20-21.91L859.20-21.91Q861.08-22.79 863.38-22.79L863.38-22.79L863.38-22.79Q865.68-22.79 866.82-22.30L866.82-22.30L866.82-22.30Q867.96-21.80 868.64-20.98L868.64-20.98L868.64-20.98Q869.80-19.48 869.80-16.73L869.80-16.73L869.80-16.73Q869.80-14.02 868.64-8.39L868.64-8.39L868.64-8.39Q868.04-5.63 868.04-4.62L868.04-4.62L868.04-4.62Q868.04-3.61 868.62-3.01L868.62-3.01L868.62-3.01Q869.20-2.41 870.06-2.32L870.06-2.32L870.06-2.32Q869.63-0.86 868.15 0L868.15 0L868.15 0Q866.66 0.86 864.73 0.86ZM885.67-20.94L885.67-20.94L885.67-20.94Q884.21-22.06 884.21-24.45L884.21-24.45L884.21-24.45Q884.21-26.83 885.78-28.08L885.78-28.08L885.78-28.08Q887.35-29.33 890.06-29.33L890.06-29.33L890.06-29.33Q891.78-29.33 895.86-28.72L895.86-28.72L898.79-28.29L898.79-28.29Q900.25-28.12 901.77-28.12L901.77-28.12L901.77-28.12Q903.30-28.12 904.33-28.77L904.33-28.77L904.33-28.77Q905.88-27.39 905.88-25.41L905.88-25.41L905.88-25.41Q905.88-23.44 904.12-22.02L904.12-22.02L904.12-22.02Q902.31-20.51 899.99-20.51L899.99-20.51L899.99-20.51Q898.87-20.51 897.07-20.81L897.07-20.81L897.07-20.81Q894.96-14.19 894.96-9.59L894.96-9.59L894.96-9.59Q894.96-4.99 897.28-2.58L897.28-2.58L897.28-2.58Q896.21-0.65 894.61 0.11L894.61 0.11L894.61 0.11Q893.02 0.86 890.64 0.86L890.64 0.86L890.64 0.86Q888.25 0.86 886.77-0.45L886.77-0.45L886.77-0.45Q885.28-1.76 885.28-4.47L885.28-4.47L885.28-4.47Q885.28-7.61 887.00-12.77L887.00-12.77L887.00-12.77Q888.72-17.89 891.30-21.80L891.30-21.80L891.30-21.80Q890.06-21.93 888.77-21.93L888.77-21.93L888.77-21.93Q886.10-21.93 885.67-20.94ZM926.13-4.77L926.13-4.77L926.13-4.77Q926.13-2.88 928.07-2.32L928.07-2.32L928.07-2.32Q927.60-0.73 925.75 0.13L925.75 0.13L925.75 0.13Q924.20 0.86 922.50 0.86L922.50 0.86L922.50 0.86Q920.80 0.86 919.92 0.41L919.92 0.41L919.92 0.41Q919.04-0.04 918.57-0.77L918.57-0.77L918.57-0.77Q917.79-1.89 917.79-4.00L917.79-4.00L917.79-4.00Q917.79-5.25 918.48-8.69L918.48-8.69L919.08-11.95L919.08-11.95Q919.81-15.70 919.81-17.07L919.81-17.07L919.81-17.07Q919.81-19.48 918.48-19.48L918.48-19.48L918.48-19.48Q916.80-19.48 915.73-17.03L915.73-17.03L915.73-17.03Q915.30-16.08 915.00-14.66L915.00-14.66L912.07 0L903.43 0.86L909.49-30.10L918.14-30.96L917.79-29.24L917.79-29.24Q916.59-22.62 915.56-20.38L915.56-20.38L915.56-20.38Q917.96-22.79 922.39-22.79L922.39-22.79L922.39-22.79Q927.08-22.79 927.94-19.69L927.94-19.69L927.94-19.69Q928.24-18.71 928.24-17.85L928.24-17.85L928.24-17.85Q928.24-16.99 928.18-16.32L928.18-16.32L928.18-16.32Q928.11-15.65 927.90-14.45L927.90-14.45L927.34-11.35L926.35-6.49L926.35-6.49Q926.13-5.50 926.13-4.77ZM940.93 0.86L940.93 0.86L940.93 0.86Q931.47 0.86 931.47-8.04L931.47-8.04L931.47-8.04Q931.47-14.36 934.95-18.45L934.95-18.45L934.95-18.45Q938.65-22.79 945.05-22.79L945.05-22.79L945.05-22.79Q949.70-22.79 952.06-20.64L952.06-20.64L952.06-20.64Q954.43-18.49 954.43-13.98L954.43-13.98L954.43-13.98Q954.43-7.10 950.73-3.10L950.73-3.10L950.73-3.10Q947.12 0.86 940.93 0.86ZM942.04-17.85L942.04-17.85L942.04-17.85Q941.53-16.68 941.12-14.94L941.12-14.94L941.12-14.94Q940.71-13.20 940.19-10.45L940.19-10.45L940.19-10.45Q939.68-7.70 939.68-4.30L939.68-4.30L939.68-4.30Q939.68-3.18 940.04-2.45L940.04-2.45L940.04-2.45Q940.41-1.72 941.40-1.72L941.40-1.72L941.40-1.72Q942.39-1.72 943.01-2.19L943.01-2.19L943.01-2.19Q943.63-2.67 944.11-3.78L944.11-3.78L944.11-3.78Q944.97-5.76 945.66-9.44L945.66-9.44L945.66-9.44Q946.34-13.12 946.41-14.71L946.41-14.71L946.41-14.71Q946.47-16.30 946.47-17.48L946.47-17.48L946.47-17.48Q946.47-18.66 946.13-19.44L946.13-19.44L946.13-19.44Q945.78-20.21 944.82-20.21L944.82-20.21L944.82-20.21Q943.85-20.21 943.20-19.61L943.20-19.61L943.20-19.61Q942.56-19.01 942.04-17.85ZM967.28-2.37L967.28-2.37L967.28-2.37Q965.95 0.86 961.69 0.86L961.69 0.86L961.69 0.86Q959.50 0.86 958.13-0.65L958.13-0.65L958.13-0.65Q956.96-1.98 956.96-3.31L956.96-3.31L956.96-3.31Q956.96-6.79 958.56-13.59L958.56-13.59L960.15-21.93L968.88-22.79L966.25-9.20L966.25-9.20Q965.52-6.02 965.52-4.90L965.52-4.90L965.52-4.90Q965.52-2.45 967.28-2.37ZM960.92-27.91L960.92-27.91L960.92-27.91Q960.92-29.58 962.32-30.49L962.32-30.49L962.32-30.49Q963.72-31.39 965.74-31.39L965.74-31.39L965.74-31.39Q967.76-31.39 968.98-30.49L968.98-30.49L968.98-30.49Q970.21-29.58 970.21-27.91L970.21-27.91L970.21-27.91Q970.21-26.23 968.85-25.37L968.85-25.37L968.85-25.37Q967.50-24.51 965.48-24.51L965.48-24.51L965.48-24.51Q963.46-24.51 962.19-25.37L962.19-25.37L962.19-25.37Q960.92-26.23 960.92-27.91ZM1007.70-17.85L1007.70-17.85L1007.70-17.85Q1007.70 0.47 987.84 0.47L987.84 0.47L987.84 0.47Q984.66 0.47 979.41-0.30L979.41-0.30L984.23-25.71L984.23-25.71Q984.57-27.43 984.79-28.42L984.79-28.42L984.79-28.42Q991.32-28.90 994.22-28.90L994.22-28.90L994.22-28.90Q997.13-28.90 999.79-28.29L999.79-28.29L999.79-28.29Q1002.46-27.69 1004.22-26.36L1004.22-26.36L1004.22-26.36Q1007.70-23.74 1007.70-17.85ZM998.85-19.44L998.85-19.44L998.85-19.44Q998.85-25.84 994.25-25.84L994.25-25.84L993.82-25.84L993.82-25.84Q993.60-25.84 993.39-25.80L993.39-25.80L988.96-2.71L988.96-2.71Q989.13-2.62 989.30-2.62L989.30-2.62L989.64-2.62L989.64-2.62Q991.24-2.62 992.89-3.61L992.89-3.61L992.89-3.61Q994.55-4.60 995.84-6.62L995.84-6.62L995.84-6.62Q998.85-11.31 998.85-19.44ZM1011.77-1.29L1011.77-1.29L1011.77-1.29Q1010.76-2.41 1010.31-4.17L1010.31-4.17L1010.31-4.17Q1009.85-5.93 1009.85-8.82L1009.85-8.82L1009.85-8.82Q1009.85-11.70 1010.84-14.32L1010.84-14.32L1010.84-14.32Q1011.83-16.94 1013.64-18.83L1013.64-18.83L1013.64-18.83Q1017.34-22.79 1023.44-22.79L1023.44-22.79L1023.44-22.79Q1025.64-22.79 1027.23-22.06L1027.23-22.06L1034.58-22.79L1031.40-6.02L1031.40-6.02Q1031.27-5.50 1031.27-4.56L1031.27-4.56L1031.27-4.56Q1031.27-3.61 1031.85-3.01L1031.85-3.01L1031.85-3.01Q1032.43-2.41 1033.29-2.32L1033.29-2.32L1033.29-2.32Q1032.86-0.86 1031.29 0L1031.29 0L1031.29 0Q1029.72 0.86 1027.96 0.86L1027.96 0.86L1027.96 0.86Q1026.19 0.86 1025.01 0.19L1025.01 0.19L1025.01 0.19Q1023.83-0.47 1023.49-1.59L1023.49-1.59L1023.49-1.59Q1022.80-0.52 1021.34 0.17L1021.34 0.17L1021.34 0.17Q1019.87 0.86 1017.92 0.86L1017.92 0.86L1017.92 0.86Q1015.96 0.86 1014.37 0.34L1014.37 0.34L1014.37 0.34Q1012.78-0.17 1011.77-1.29ZM1020.84-18.75L1020.84-18.75L1020.84-18.75Q1020.35-17.97 1019.92-16.66L1019.92-16.66L1019.92-16.66Q1019.49-15.35 1018.78-11.85L1018.78-11.85L1018.78-11.85Q1018.07-8.34 1018.07-5.85L1018.07-5.85L1018.07-5.85Q1018.07-3.35 1018.45-2.62L1018.45-2.62L1018.45-2.62Q1018.84-1.89 1019.53-1.89L1019.53-1.89L1019.53-1.89Q1020.91-1.89 1021.92-3.20L1021.92-3.20L1021.92-3.20Q1022.93-4.52 1023.31-6.84L1023.31-6.84L1025.59-19.44L1025.59-19.44Q1024.69-20.21 1023.64-20.21L1023.64-20.21L1023.64-20.21Q1022.58-20.21 1021.96-19.87L1021.96-19.87L1021.96-19.87Q1021.34-19.52 1020.84-18.75ZM1050.58-4.86L1050.58-4.86L1050.58-4.86Q1048.34-2.54 1044.25-2.54L1044.25-2.54L1044.25-2.54Q1039.14-2.54 1038.06-6.28L1038.06-6.28L1038.06-6.28Q1037.72-7.40 1037.72-8.64L1037.72-8.64L1037.72-8.64Q1037.72-9.89 1037.98-11.18L1037.98-11.18L1040.00-21.93L1048.73-22.79L1046.36-10.28L1046.36-10.28Q1046.28-9.72 1046.15-9.12L1046.15-9.12L1046.15-9.12Q1046.02-8.51 1046.02-7.89L1046.02-7.89L1046.02-7.89Q1046.02-7.27 1046.23-6.86L1046.23-6.86L1046.23-6.86Q1046.45-6.45 1046.75-6.19L1046.75-6.19L1046.75-6.19Q1047.26-5.85 1048.19-5.85L1048.19-5.85L1048.19-5.85Q1049.11-5.85 1049.91-6.97L1049.91-6.97L1049.91-6.97Q1050.70-8.08 1051.09-10.02L1051.09-10.02L1053.46-21.93L1061.93-22.79L1058.70-5.89L1058.70-5.89Q1057.11 2.37 1053.84 5.63L1053.84 5.63L1053.84 5.63Q1052.17 7.31 1050.00 7.98L1050.00 7.98L1050.00 7.98Q1047.82 8.64 1045.03 8.64L1045.03 8.64L1045.03 8.64Q1040.51 8.64 1037.93 7.22L1037.93 7.22L1037.93 7.22Q1035.35 5.81 1035.35 3.44L1035.35 3.44L1035.35 3.44Q1035.35 1.68 1036.69 0.67L1036.69 0.67L1036.69 0.67Q1038.02-0.34 1040.08-0.34L1040.08-0.34L1040.08-0.34Q1041.89-0.34 1043.27 0.43L1043.27 0.43L1043.27 0.43Q1044.08 0.90 1044.47 1.51L1044.47 1.51L1044.47 1.51Q1043.48 2.37 1043.48 3.78L1043.48 3.78L1043.48 3.78Q1043.48 5.68 1045.20 5.68L1045.20 5.68L1045.20 5.68Q1048.04 5.68 1049.67-0.86L1049.67-0.86L1049.67-0.86Q1050.15-2.80 1050.58-4.86ZM1077.15-4.86L1077.15-4.86L1077.15-4.86Q1074.91-2.54 1070.83-2.54L1070.83-2.54L1070.83-2.54Q1065.71-2.54 1064.64-6.28L1064.64-6.28L1064.64-6.28Q1064.29-7.40 1064.29-8.64L1064.29-8.64L1064.29-8.64Q1064.29-9.89 1064.55-11.18L1064.55-11.18L1066.57-21.93L1075.30-22.79L1072.94-10.28L1072.94-10.28Q1072.85-9.72 1072.72-9.12L1072.72-9.12L1072.72-9.12Q1072.59-8.51 1072.59-7.89L1072.59-7.89L1072.59-7.89Q1072.59-7.27 1072.81-6.86L1072.81-6.86L1072.81-6.86Q1073.02-6.45 1073.32-6.19L1073.32-6.19L1073.32-6.19Q1073.84-5.85 1074.76-5.85L1074.76-5.85L1074.76-5.85Q1075.69-5.85 1076.48-6.97L1076.48-6.97L1076.48-6.97Q1077.28-8.08 1077.67-10.02L1077.67-10.02L1080.03-21.93L1088.50-22.79L1085.28-5.89L1085.28-5.89Q1083.69 2.37 1080.42 5.63L1080.42 5.63L1080.42 5.63Q1078.74 7.31 1076.57 7.98L1076.57 7.98L1076.57 7.98Q1074.40 8.64 1071.60 8.64L1071.60 8.64L1071.60 8.64Q1067.09 8.64 1064.51 7.22L1064.51 7.22L1064.51 7.22Q1061.93 5.81 1061.93 3.44L1061.93 3.44L1061.93 3.44Q1061.93 1.68 1063.26 0.67L1063.26 0.67L1063.26 0.67Q1064.59-0.34 1066.66-0.34L1066.66-0.34L1066.66-0.34Q1068.46-0.34 1069.84 0.43L1069.84 0.43L1069.84 0.43Q1070.66 0.90 1071.04 1.51L1071.04 1.51L1071.04 1.51Q1070.05 2.37 1070.05 3.78L1070.05 3.78L1070.05 3.78Q1070.05 5.68 1071.77 5.68L1071.77 5.68L1071.77 5.68Q1074.61 5.68 1076.25-0.86L1076.25-0.86L1076.25-0.86Q1076.72-2.80 1077.15-4.86ZM1103.72-4.86L1103.72-4.86L1103.72-4.86Q1101.49-2.54 1097.40-2.54L1097.40-2.54L1097.40-2.54Q1092.29-2.54 1091.21-6.28L1091.21-6.28L1091.21-6.28Q1090.87-7.40 1090.87-8.64L1090.87-8.64L1090.87-8.64Q1090.87-9.89 1091.13-11.18L1091.13-11.18L1093.15-21.93L1101.88-22.79L1099.51-10.28L1099.51-10.28Q1099.42-9.72 1099.30-9.12L1099.30-9.12L1099.30-9.12Q1099.17-8.51 1099.17-7.89L1099.17-7.89L1099.17-7.89Q1099.17-7.27 1099.38-6.86L1099.38-6.86L1099.38-6.86Q1099.60-6.45 1099.90-6.19L1099.90-6.19L1099.90-6.19Q1100.41-5.85 1101.34-5.85L1101.34-5.85L1101.34-5.85Q1102.26-5.85 1103.06-6.97L1103.06-6.97L1103.06-6.97Q1103.85-8.08 1104.24-10.02L1104.24-10.02L1106.61-21.93L1115.08-22.79L1111.85-5.89L1111.85-5.89Q1110.26 2.37 1106.99 5.63L1106.99 5.63L1106.99 5.63Q1105.32 7.31 1103.14 7.98L1103.14 7.98L1103.14 7.98Q1100.97 8.64 1098.18 8.64L1098.18 8.64L1098.18 8.64Q1093.66 8.64 1091.08 7.22L1091.08 7.22L1091.08 7.22Q1088.50 5.81 1088.50 3.44L1088.50 3.44L1088.50 3.44Q1088.50 1.68 1089.84 0.67L1089.84 0.67L1089.84 0.67Q1091.17-0.34 1093.23-0.34L1093.23-0.34L1093.23-0.34Q1095.04-0.34 1096.41 0.43L1096.41 0.43L1096.41 0.43Q1097.23 0.90 1097.62 1.51L1097.62 1.51L1097.62 1.51Q1096.63 2.37 1096.63 3.78L1096.63 3.78L1096.63 3.78Q1096.63 5.68 1098.35 5.68L1098.35 5.68L1098.35 5.68Q1101.19 5.68 1102.82-0.86L1102.82-0.86L1102.82-0.86Q1103.29-2.80 1103.72-4.86ZM1130.30-4.86L1130.30-4.86L1130.30-4.86Q1128.06-2.54 1123.98-2.54L1123.98-2.54L1123.98-2.54Q1118.86-2.54 1117.79-6.28L1117.79-6.28L1117.79-6.28Q1117.44-7.40 1117.44-8.64L1117.44-8.64L1117.44-8.64Q1117.44-9.89 1117.70-11.18L1117.70-11.18L1119.72-21.93L1128.45-22.79L1126.08-10.28L1126.08-10.28Q1126.00-9.72 1125.87-9.12L1125.87-9.12L1125.87-9.12Q1125.74-8.51 1125.74-7.89L1125.74-7.89L1125.74-7.89Q1125.74-7.27 1125.95-6.86L1125.95-6.86L1125.95-6.86Q1126.17-6.45 1126.47-6.19L1126.47-6.19L1126.47-6.19Q1126.99-5.85 1127.91-5.85L1127.91-5.85L1127.91-5.85Q1128.84-5.85 1129.63-6.97L1129.63-6.97L1129.63-6.97Q1130.43-8.08 1130.81-10.02L1130.81-10.02L1133.18-21.93L1141.65-22.79L1138.42-5.89L1138.42-5.89Q1136.83 2.37 1133.57 5.63L1133.57 5.63L1133.57 5.63Q1131.89 7.31 1129.72 7.98L1129.72 7.98L1129.72 7.98Q1127.55 8.64 1124.75 8.64L1124.75 8.64L1124.75 8.64Q1120.24 8.64 1117.66 7.22L1117.66 7.22L1117.66 7.22Q1115.08 5.81 1115.08 3.44L1115.08 3.44L1115.08 3.44Q1115.08 1.68 1116.41 0.67L1116.41 0.67L1116.41 0.67Q1117.74-0.34 1119.81-0.34L1119.81-0.34L1119.81-0.34Q1121.61-0.34 1122.99 0.43L1122.99 0.43L1122.99 0.43Q1123.81 0.90 1124.19 1.51L1124.19 1.51L1124.19 1.51Q1123.20 2.37 1123.20 3.78L1123.20 3.78L1123.20 3.78Q1123.20 5.68 1124.92 5.68L1124.92 5.68L1124.92 5.68Q1127.76 5.68 1129.39-0.86L1129.39-0.86L1129.39-0.86Q1129.87-2.80 1130.30-4.86ZM1150.77-2.54L1150.77-2.54L1150.77-2.54Q1150.77-4.17 1152.03-5.07L1152.03-5.07L1152.03-5.07Q1153.30-5.98 1155.11-5.98L1155.11-5.98L1155.11-5.98Q1156.91-5.98 1158.01-5.07L1158.01-5.07L1158.01-5.07Q1159.11-4.17 1159.11-2.54L1159.11-2.54L1159.11-2.54Q1159.11-0.90 1157.88-0.02L1157.88-0.02L1157.88-0.02Q1156.66 0.86 1154.85 0.86L1154.85 0.86L1154.85 0.86Q1153.05 0.86 1151.91-0.02L1151.91-0.02L1151.91-0.02Q1150.77-0.90 1150.77-2.54ZM1161.82-2.54L1161.82-2.54L1161.82-2.54Q1161.82-4.17 1163.09-5.07L1163.09-5.07L1163.09-5.07Q1164.35-5.98 1166.16-5.98L1166.16-5.98L1166.16-5.98Q1167.97-5.98 1169.06-5.07L1169.06-5.07L1169.06-5.07Q1170.16-4.17 1170.16-2.54L1170.16-2.54L1170.16-2.54Q1170.16-0.90 1168.93-0.02L1168.93-0.02L1168.93-0.02Q1167.71 0.86 1165.90 0.86L1165.90 0.86L1165.90 0.86Q1164.10 0.86 1162.96-0.02L1162.96-0.02L1162.96-0.02Q1161.82-0.90 1161.82-2.54ZM1172.87-2.54L1172.87-2.54L1172.87-2.54Q1172.87-4.17 1174.14-5.07L1174.14-5.07L1174.14-5.07Q1175.40-5.98 1177.21-5.98L1177.21-5.98L1177.21-5.98Q1179.02-5.98 1180.11-5.07L1180.11-5.07L1180.11-5.07Q1181.21-4.17 1181.21-2.54L1181.21-2.54L1181.21-2.54Q1181.21-0.90 1179.98-0.02L1179.98-0.02L1179.98-0.02Q1178.76 0.86 1176.95 0.86L1176.95 0.86L1176.95 0.86Q1175.15 0.86 1174.01-0.02L1174.01-0.02L1174.01-0.02Q1172.87-0.90 1172.87-2.54Z" fill="url(#editing-shiny-gradient2)"></path></g></g><style>text {
  font-size: 64px;
  font-family: Arial Black;
  dominant-baseline: central;
  text-anchor: middle;
}</style></svg>